<svg xmlns="http://www.w3.org/2000/svg" width="26.76" height="26.76" viewBox="0 0 26.76 26.76"><defs><style>.a{fill:#448ecd;}</style></defs><g transform="translate(0 -2.388)"><g transform="translate(0 2.388)"><path class="a" d="M325.218,255.626v-1.493h.32a.32.32,0,0,0,.32-.32V252.32a.32.32,0,0,0-.32-.32H322.6a.32.32,0,0,0-.25.12l-.6.747a.32.32,0,0,0,0,.4l.6.747a.32.32,0,0,0,.25.12h1.339v1.493Z" transform="translate(-304.835 -238.895)"/><path class="a" d="M213.108,181.28h6.318a.64.64,0,0,0,0-1.28h-7.919A7.864,7.864,0,0,1,213.108,181.28Z" transform="translate(-200.495 -170.711)"/><path class="a" d="M199.491,332h-6.65a9.1,9.1,0,0,1-.4,1.28h7.052a3.419,3.419,0,1,1,.009,6.838l-10.885.042a.64.64,0,1,0,0,1.28h0l10.884-.042a4.7,4.7,0,0,0-.014-9.4Z" transform="translate(-178.337 -314.68)"/><path class="a" d="M281.154,109.68a1.454,1.454,0,0,0,1.454-1.454c0-.8-.789-2.226-1.454-2.226s-1.454,1.423-1.454,2.226A1.454,1.454,0,0,0,281.154,109.68Z" transform="translate(-265.053 -100.641)"/><path class="a" d="M223.235,109.68a1.454,1.454,0,0,0,1.454-1.454c0-.8-.789-2.226-1.454-2.226s-1.454,1.423-1.454,2.226A1.454,1.454,0,0,0,223.235,109.68Z" transform="translate(-210.185 -100.641)"/><path class="a" d="M328.219,388c0-1.082-1.064-3-1.959-3s-1.959,1.918-1.959,3a1.959,1.959,0,0,0,3.919,0Z" transform="translate(-307.313 -364.854)"/><path class="a" d="M248.178,389.96A1.959,1.959,0,0,0,250.137,388c0-1.082-1.064-3-1.959-3s-1.959,1.918-1.959,3A1.959,1.959,0,0,0,248.178,389.96Z" transform="translate(-233.341 -364.854)"/><path class="a" d="M8.749,170.984a7.177,7.177,0,0,0-7.168,7.168c0,4.488,6.462,10.44,6.737,10.691a.64.64,0,0,0,.863,0c.275-.251,6.737-6.2,6.737-10.691A7.177,7.177,0,0,0,8.749,170.984Zm0,11.861a4.693,4.693,0,1,1,4.693-4.693,4.693,4.693,0,0,1-4.693,4.693Z" transform="translate(-1.581 -162.251)"/><path class="a" d="M345.087,15.531a.64.64,0,0,0,.786,0,17.239,17.239,0,0,0,2-1.89,6.659,6.659,0,0,0,2.084-4.161,4.48,4.48,0,0,0-8.959,0,6.659,6.659,0,0,0,2.084,4.161A17.234,17.234,0,0,0,345.087,15.531Zm.393-8.185a2.133,2.133,0,1,1-2.133,2.133A2.133,2.133,0,0,1,345.48,7.346Z" transform="translate(-323.2 -5)"/></g></g></svg>