<svg xmlns="http://www.w3.org/2000/svg" width="27.355" height="27.355" viewBox="0 0 27.355 27.355"><defs><style>.a{fill:#575757;}</style></defs><path class="a" d="M9.947,0H2.487A2.489,2.489,0,0,0,0,2.487v7.46a2.489,2.489,0,0,0,2.487,2.487h7.46a2.489,2.489,0,0,0,2.487-2.487V2.487A2.489,2.489,0,0,0,9.947,0Zm1.243,9.947a1.245,1.245,0,0,1-1.243,1.243H2.487A1.245,1.245,0,0,1,1.243,9.947V2.487A1.245,1.245,0,0,1,2.487,1.243h7.46a1.245,1.245,0,0,1,1.243,1.243Z"/><path class="a" d="M265.947,0h-7.46A2.489,2.489,0,0,0,256,2.487v7.46a2.489,2.489,0,0,0,2.487,2.487h7.46a2.489,2.489,0,0,0,2.487-2.487V2.487A2.489,2.489,0,0,0,265.947,0Zm1.243,9.947a1.245,1.245,0,0,1-1.243,1.243h-7.46a1.245,1.245,0,0,1-1.243-1.243V2.487a1.245,1.245,0,0,1,1.243-1.243h7.46a1.245,1.245,0,0,1,1.243,1.243Z" transform="translate(-241.079)"/><path class="a" d="M9.947,256H2.487A2.489,2.489,0,0,0,0,258.487v7.46a2.489,2.489,0,0,0,2.487,2.487h7.46a2.489,2.489,0,0,0,2.487-2.487v-7.46A2.489,2.489,0,0,0,9.947,256Zm1.243,9.947a1.245,1.245,0,0,1-1.243,1.243H2.487a1.245,1.245,0,0,1-1.243-1.243v-7.46a1.245,1.245,0,0,1,1.243-1.243h7.46a1.245,1.245,0,0,1,1.243,1.243Z" transform="translate(0 -241.079)"/><path class="a" d="M305.5,301.775h-2.487v-2.487a.622.622,0,0,0-1.243,0v2.487h-2.487a.622.622,0,0,0,0,1.243h2.487V305.5a.622.622,0,0,0,1.243,0v-2.487H305.5a.622.622,0,1,0,0-1.243Z" transform="translate(-281.258 -281.259)"/></svg>