<svg xmlns="http://www.w3.org/2000/svg" width="20.107" height="22.307" viewBox="0 0 20.107 22.307"><defs><style>.a{fill:#448ecd;}</style></defs><g transform="translate(-25.25)"><g transform="translate(32.336)"><path class="a" d="M190.857,0a2.971,2.971,0,0,0-2.968,2.968v.9h1.535v-.9a1.433,1.433,0,0,1,2.865,0v.9h1.535v-.9A2.971,2.971,0,0,0,190.857,0Z" transform="translate(-187.89)"/></g><g transform="translate(31.671 18.7)"><path class="a" d="M178.354,429.2a2.075,2.075,0,0,1-2.072,2.072h-.051a2.075,2.075,0,0,1-2.072-2.072h-1.535a3.611,3.611,0,0,0,3.607,3.607h.051a3.611,3.611,0,0,0,3.607-3.607Z" transform="translate(-172.624 -429.205)"/></g><g transform="translate(25.25 2.84)"><path class="a" d="M45.235,80.748l-2.18-3.392V73a7.752,7.752,0,1,0-15.5,0v4.354l-2.18,3.392a.768.768,0,0,0,.645,1.183H44.59a.767.767,0,0,0,.645-1.182ZM27.423,80.4,28.965,78a.767.767,0,0,0,.122-.415V73A6.217,6.217,0,1,1,41.52,73v4.579a.768.768,0,0,0,.122.415l1.542,2.4Z" transform="translate(-25.25 -65.174)"/></g></g></svg>