<svg xmlns="http://www.w3.org/2000/svg" width="38.499" height="45.803" viewBox="0 0 38.499 45.803"><defs><style>.a{fill:#fff;}</style></defs><path class="a" d="M36.944,22.91H7.593a1.59,1.59,0,0,1-1.559-1.571,2.043,2.043,0,0,1,.054-.423L7.65,10.008c.133-.709.771-.848,1.534-.848H35.358c.758,0,1.4.127,1.533.833L38.452,21.1a1.621,1.621,0,0,1,.055.345A1.506,1.506,0,0,1,36.944,22.91ZM35.77,35.142a2.917,2.917,0,1,1,2.985-2.922A2.953,2.953,0,0,1,35.77,35.142Zm-27.042,0a2.917,2.917,0,1,1,3-2.922A2.951,2.951,0,0,1,8.728,35.142Zm5.152-32.4H32.213v2.75H13.88A1.375,1.375,0,1,1,13.88,2.744ZM39.731,6.951c-.535-2.579-2.1-3.617-4.65-4.655A42.236,42.236,0,0,0,22.195.023,42.537,42.537,0,0,0,9.256,2.3C6.706,3.335,5.168,4.373,4.637,6.951L2.88,21.3V41.243H5.63v1.833c0,3.667,4.583,3.667,4.583,0V41.243H33.129v1.833c0,3.667,5.5,3.667,5.5,0V41.243h2.75V21.3L39.731,6.951Z" transform="translate(-2.88 -0.023)"/></svg>