<svg xmlns="http://www.w3.org/2000/svg" width="33" height="32.999" viewBox="0 0 33 32.999"><defs><style>.a{fill:#676767;}</style></defs><g transform="translate(0 -0.001)"><path class="a" d="M32.987,17.59a2.109,2.109,0,0,0-.824-1.445L29.15,13.986V8.7h-4.4v2.131L16.533,4.947.859,15.625a2.1,2.1,0,0,0-.84,1.413,2.068,2.068,0,0,0,.438,1.574,2.245,2.245,0,0,0,3.063.406L3.85,18.8v1.276a1.828,1.828,0,0,0,0,3.353V25.4a1.828,1.828,0,0,0,0,3.353v1.971A1.858,1.858,0,0,0,2.75,32.4a1.9,1.9,0,0,0,1.925,1.864H28.325a1.856,1.856,0,0,0,.275-3.7V28.91a1.847,1.847,0,0,0,0-3.673V23.585a1.847,1.847,0,0,0,0-3.673V18.9l.829.585a2.253,2.253,0,0,0,3.083-.327A2.068,2.068,0,0,0,32.987,17.59ZM25.85,9.768h2.2V13.2l-2.2-1.576ZM12.65,28.937v1.6H4.95v-1.6ZM4.95,25.21v-1.6h7.7v1.6Zm-.275,1.065H12.65v1.6H4.675a.8.8,0,1,1,0-1.6ZM12.65,33.2H4.675a.8.8,0,1,1,0-1.6H12.65Zm6.6,0h-5.5V23.612h5.5V33.2Zm1.1-7.987v-1.6H27.5v1.6Zm0,5.325v-1.6H27.5v1.6Zm8.8,1.864a.813.813,0,0,1-.825.8H20.35V31.6h7.975A.813.813,0,0,1,29.15,32.4Zm0-5.325a.813.813,0,0,1-.825.8H20.35v-1.6h7.975A.813.813,0,0,1,29.15,27.073Zm0-5.325a.813.813,0,0,1-.825.8H4.675a.8.8,0,1,1,0-1.6H28.325A.813.813,0,0,1,29.15,21.748ZM18.7,19.885H17.05v-1.6H18.7Zm0-2.662H17.05v-1.6H18.7Zm-2.75,0H14.3v-1.6h1.65ZM14.3,18.287h1.65v1.6H14.3Zm7.7,0h5.5v1.6H19.8V14.56H13.2v5.325H4.95v-1.6H11a.533.533,0,1,0,0-1.065H6.193l2.38-1.6H11.55V14.56H10.16l2.38-1.6H20.2l1.318.931.944.667H21.451v1.065h2.519l2.262,1.6H22a.533.533,0,1,0,0,1.065ZM14.126,11.9l2.342-1.572L18.693,11.9Zm17.529,6.588a1.127,1.127,0,0,1-1.547.159l-1.54-1.088-.471-.334h0l-2.261-1.6h0L20.558,11.9h0L16.483,9.019,12.195,11.9h0L6.642,15.625h0l-2.414,1.62h0l-.195.133-1.16.779a1.126,1.126,0,0,1-1.543-.194,1.045,1.045,0,0,1,.182-1.481L16.517,6.261l8.233,5.9h0l1.208.866,5.533,3.964a1.046,1.046,0,0,1,.4.716A1.034,1.034,0,0,1,31.655,18.486Z" transform="translate(0 -1.261)"/><ellipse class="a" cy="0.5" ry="0.5" transform="translate(14.765 24.301)"/><path class="a" d="M46.746,10.494a.738.738,0,1,0-.529-.216A.783.783,0,0,0,46.746,10.494Z" transform="translate(-21.01 -2.298)"/><path class="a" d="M50.746,9.471a.744.744,0,0,0,.745-.745V5.746a.745.745,0,1,0-1.49,0v2.98A.745.745,0,0,0,50.746,9.471Z" transform="translate(-24.451 -1.275)"/><path class="a" d="M50.746,2.981a.744.744,0,0,0,.745-.745V.746a.745.745,0,1,0-1.49,0v1.49A.745.745,0,0,0,50.746,2.981Z" transform="translate(-24.451)"/><path class="a" d="M46.746,6.981a.744.744,0,0,0,.745-.745V4.746a.745.745,0,0,0-1.49,0v1.49A.745.745,0,0,0,46.746,6.981Z" transform="translate(-21.01 -1.02)"/><path class="a" d="M46.746,2.236a.744.744,0,0,0,.745-.745V.746a.745.745,0,0,0-1.49,0v.745A.745.745,0,0,0,46.746,2.236Z" transform="translate(-21.01)"/></g></svg>