<svg xmlns="http://www.w3.org/2000/svg" width="20.094" height="20.094" viewBox="0 0 20.094 20.094"><defs><style>.a{fill:#00c466;}</style></defs><g transform="translate(21)"><g transform="translate(-21)"><ellipse class="a" cx="0.913" cy="0.609" rx="0.913" ry="0.609" transform="translate(14.208 7.415)"/><path class="a" d="M16.954,1.57h-1.02V.785a.785.785,0,0,0-1.57,0V1.57H10.792V.785a.785.785,0,1,0-1.57,0V1.57H5.691V.785a.785.785,0,0,0-1.57,0V1.57H3.14A3.143,3.143,0,0,0,0,4.709V16.954a3.143,3.143,0,0,0,3.14,3.14h6a.785.785,0,0,0,0-1.57h-6a1.572,1.572,0,0,1-1.57-1.57V4.709A1.572,1.572,0,0,1,3.14,3.14h.981v.785a.785.785,0,0,0,1.57,0V3.14H9.223v.785a.785.785,0,1,0,1.57,0V3.14h3.571v.785a.785.785,0,1,0,1.57,0V3.14h1.02a1.572,1.572,0,0,1,1.57,1.57V9.183a.785.785,0,1,0,1.57,0V4.709A3.143,3.143,0,0,0,16.954,1.57Z"/><path class="a" d="M274.317,270a4.317,4.317,0,1,0,4.317,4.317A4.322,4.322,0,0,0,274.317,270Zm0,7.207a2.89,2.89,0,1,1,2.89-2.89A2.893,2.893,0,0,1,274.317,277.207Z" transform="translate(-258.54 -258.54)"/><path class="a" d="M372.748,331.463h-.321v-.749a.714.714,0,1,0-1.427,0v1.463a.714.714,0,0,0,.714.714h1.035a.714.714,0,1,0,0-1.427Z" transform="translate(-355.937 -316.828)"/><ellipse class="a" cx="0.913" cy="0.609" rx="0.913" ry="0.609" transform="translate(10.825 7.415)"/><circle class="a" cx="0.913" cy="0.913" r="0.913" transform="translate(7.442 10.825)"/><circle class="a" cx="0.609" cy="0.609" r="0.609" transform="translate(4.045 7.415)"/><ellipse class="a" cx="0.609" cy="0.913" rx="0.609" ry="0.913" transform="translate(4.045 10.825)"/><ellipse class="a" cx="0.609" cy="0.913" rx="0.609" ry="0.913" transform="translate(4.045 14.208)"/><circle class="a" cx="0.913" cy="0.913" r="0.913" transform="translate(7.442 14.208)"/><ellipse class="a" cx="0.913" cy="0.609" rx="0.913" ry="0.609" transform="translate(7.442 7.415)"/></g></g></svg>