<svg xmlns="http://www.w3.org/2000/svg" width="32.75" height="32.749" viewBox="0 0 32.75 32.749"><defs><style>.a{fill:#676767;}</style></defs><g transform="translate(0 -0.001)"><g transform="translate(0 0.001)"><g transform="translate(0 0)"><path class="a" d="M32.107,6.508H30.775V5.175a.642.642,0,0,0-.642-.642H27.291a.642.642,0,1,0,0,1.284h2.2V7.15a.642.642,0,0,0,.642.642h1.332V9.446h-.814a.642.642,0,0,0,0,1.284h.814v1.386H28.479a.642.642,0,0,0,0,1.284h2.986v.957H5.253L4.417,12.5a.642.642,0,0,0-1.172,0l-.836,1.863H1.285V10.73H2.1a.642.642,0,1,0,0-1.284H1.285V8.06H3.21a.642.642,0,1,0,0-1.284H1.285V5.818H22.561a.642.642,0,1,0,0-1.284h-4.3V2.57a.643.643,0,0,0-.1-.349L16.914.294A.642.642,0,0,0,16.375,0h0a.642.642,0,0,0-.539.293L14.588,2.22a.642.642,0,0,0-.1.349V4.533H.642A.642.642,0,0,0,0,5.175V7.412s0,0,0,.006,0,0,0,.006v2.658s0,0,0,.006,0,0,0,.006V15a.642.642,0,0,0,.642.642H2.825a.642.642,0,0,0,.586-.379l.42-.937.42.937a.642.642,0,0,0,.586.379h9.647V32.108a.642.642,0,0,0,.642.642h2.5a.642.642,0,0,0,.642-.642V15.642H32.107A.642.642,0,0,0,32.75,15V7.15A.642.642,0,0,0,32.107,6.508ZM16.375,1.824l.606.935V4.533H15.769V2.759h0Zm.606,29.642H15.769V15.642H16.98Z" transform="translate(0 -0.001)"/></g></g><g transform="translate(4.669 6.776)"><path class="a" d="M77.292,111.254H76.3a2.028,2.028,0,0,1,0-4.056h.99a.642.642,0,0,0,0-1.284H76.3a3.313,3.313,0,0,0,0,6.625h.99a.642.642,0,1,0,0-1.284Z" transform="translate(-72.99 -105.913)"/></g><g transform="translate(10.824 6.776)"><path class="a" d="M171.7,105.913a2.473,2.473,0,0,0-2.472,2.472V111.9a.642.642,0,1,0,1.284,0v-2.029h2.376V111.9a.642.642,0,1,0,1.284,0v-3.511A2.475,2.475,0,0,0,171.7,105.913Zm1.188,2.67h-2.376v-.2a1.188,1.188,0,1,1,2.376,0v.2Z" transform="translate(-169.225 -105.913)"/></g><g transform="translate(16.981 6.775)"><path class="a" d="M269.962,105.94a.642.642,0,0,0-.72.25l-1.3,1.9-1.3-1.9a.642.642,0,0,0-1.172.363v5.341a.642.642,0,1,0,1.284,0v-3.268l.658.96a.642.642,0,0,0,1.059,0l.658-.96v3.268a.642.642,0,0,0,1.284,0v-5.341A.642.642,0,0,0,269.962,105.94Z" transform="translate(-265.47 -105.911)"/></g><g transform="translate(23.137 6.776)"><path class="a" d="M366.017,105.913h-3.66a.642.642,0,0,0-.642.642V111.9a.642.642,0,0,0,1.284,0v-2.029h3.018a.642.642,0,0,0,.642-.642v-2.67A.642.642,0,0,0,366.017,105.913Zm-.642,2.67H363V107.2h2.376Z" transform="translate(-361.715 -105.913)"/></g><g transform="translate(24.282 4.41)"><circle class="a" cx="0.663" cy="0.663" r="0.663"/></g></g></svg>