<svg xmlns="http://www.w3.org/2000/svg" width="38.627" height="34.001" viewBox="0 0 38.627 34.001"><defs><style>.a{fill:#11a11a;}</style></defs><g transform="translate(0 -1.908)"><g transform="translate(0 1.908)"><path class="a" d="M18.162,13.54a27.231,27.231,0,0,0,.49-3.078c.089-1.99.2-8.554-5.526-8.554a5.041,5.041,0,0,0-1.618.211c-.307.138-.363.45-.56.518s-.5.042-.683.13c-2.838,1.367-2.739,4.7-2.739,4.7l.418,6.844-.558,5.36H0v3.58H2.314V35.909H26.244V23.25h2.313V19.671h-9.72ZM8.7,6.81a3,3,0,0,0,2.8-2.467c1.6,1.324,3.864,1.389,5.752,1.558.233.109.407.585.457,1.213l-.992.154v-.7H13.575V7.3h-.553V6.567H9.88V7.25L8.666,7.076C8.675,6.988,8.689,6.9,8.7,6.81Zm7.67.108V8.162H13.926V6.918Zm-3.7,0V8.162H10.231V6.918Zm-2.2,12.754H9.266l.393-3.038c.433,1.465.844,2.817.844,2.817Zm5.53,0-.05-.336s.235-1.55.517-3.183l.485,3.519Zm-1.587-8.012v1.609h.007l.578.275-1.583,2.847v3.281h-.39V16.515l-1.621-3.072.455-.115V11.6a4.555,4.555,0,0,1-3.182-4l1.2.172v.731h3.142V7.994h.553v.518h3.143V7.8l1-.154A3.9,3.9,0,0,1,14.416,11.659Z" transform="translate(0 -1.908)"/><path class="a" d="M17.855,3.874V15.148H34.83V3.874Zm16.2,10.493H18.636V4.656H34.05Z" transform="translate(3.797 -1.49)"/><path class="a" d="M22.469,9.444h-1.5V9.1h1.321V8.429H20.971V8.081h1.455V7.364H20.109v2.8h2.36Z" transform="translate(4.276 -0.748)"/><rect class="a" width="1.98" height="0.599" transform="translate(27.108 8.595)"/><rect class="a" width="1.98" height="0.598" transform="translate(27.108 7.651)"/><path class="a" d="M25.087,8.935a.549.549,0,0,1,.055-.262.217.217,0,0,1,.207-.1.272.272,0,0,1,.138.029.238.238,0,0,1,.075.08A.282.282,0,0,1,25.6,8.8a1.253,1.253,0,0,1,.006.137v1.1h.776v-1.1a.534.534,0,0,1,.057-.262.215.215,0,0,1,.206-.1.262.262,0,0,1,.137.029.226.226,0,0,1,.079.08.324.324,0,0,1,.032.118c0,.044,0,.09,0,.137v1.1h.777V8.641a1.008,1.008,0,0,0-.033-.245.6.6,0,0,0-.12-.224.571.571,0,0,0-.216-.161.769.769,0,0,0-.329-.061A1,1,0,0,0,26.654,8a.955.955,0,0,0-.206.1.624.624,0,0,0-.114.11.5.5,0,0,1-.05.058.507.507,0,0,0-.228-.234.671.671,0,0,0-.321-.082.967.967,0,0,0-.38.073.649.649,0,0,0-.287.25H25.06V8h-.748v2.034h.779l0-1.1Z" transform="translate(5.17 -0.623)"/><path class="a" d="M27.68,9.811a1.025,1.025,0,0,0,.363.206,1.474,1.474,0,0,0,.786.032,1.111,1.111,0,0,0,.3-.118.93.93,0,0,0,.246-.2.865.865,0,0,0,.164-.286h-.723a.268.268,0,0,1-.139.11.5.5,0,0,1-.184.035.351.351,0,0,1-.284-.109.474.474,0,0,1-.115-.286h1.49a2.038,2.038,0,0,0-.067-.529,1.029,1.029,0,0,0-.211-.389.863.863,0,0,0-.36-.241,1.466,1.466,0,0,0-.524-.082,1.088,1.088,0,0,0-.438.085.97.97,0,0,0-.338.23,1.045,1.045,0,0,0-.218.341,1.1,1.1,0,0,0-.075.417,1.117,1.117,0,0,0,.084.454A1.011,1.011,0,0,0,27.68,9.811Zm.544-1.273a.4.4,0,0,1,.276-.089.332.332,0,0,1,.244.1.343.343,0,0,1,.095.243H28.1A.418.418,0,0,1,28.224,8.538Z" transform="translate(5.817 -0.622)"/><path class="a" d="M30.41,8.216h-.622c.065-.039.131-.078.2-.115a1.345,1.345,0,0,0,.2-.124.64.64,0,0,0,.144-.159.409.409,0,0,0,.057-.224.468.468,0,0,0-.038-.19.411.411,0,0,0-.114-.136.568.568,0,0,0-.178-.08.9.9,0,0,0-.228-.027.784.784,0,0,0-.251.04.489.489,0,0,0-.3.3.677.677,0,0,0-.028.255h.373a.4.4,0,0,1,.041-.206.178.178,0,0,1,.166-.078.188.188,0,0,1,.119.038A.16.16,0,0,1,30,7.641a.126.126,0,0,1-.019.067.283.283,0,0,1-.047.055c-.021.015-.038.029-.061.042s-.041.025-.059.036c-.044.027-.09.052-.133.081s-.092.055-.135.084-.081.062-.121.1a1.061,1.061,0,0,0-.1.11.592.592,0,0,0-.078.154.514.514,0,0,0-.019.186h1.19V8.216Z" transform="translate(6.215 -0.791)"/></g></g></svg>