<svg xmlns="http://www.w3.org/2000/svg" width="36" height="36" viewBox="0 0 36 36"><defs><style>.a{fill:#1ea526;fill-rule:evenodd;}</style></defs><path class="a" d="M.192,14.32c.624-.875,1.24-1.759,1.86-2.635A22.147,22.147,0,0,1,4.312,8.729,4.515,4.515,0,0,1,6.641,7.254,3.472,3.472,0,0,1,7,7.217l9.2-.1A1.646,1.646,0,0,0,17.569,6.4l2.543-3.59A1.028,1.028,0,0,1,21.54,2.57a1.038,1.038,0,0,1,.355,1.508L18.532,8.825a1.715,1.715,0,0,1-1.4.745L14.7,9.623a2.476,2.476,0,0,0-2.466,2.469v3.767a.291.291,0,0,0,.145.252l4.747,2.747v5.373H14.609V20.263a.291.291,0,0,0-.149-.254l-4.88-2.74a.3.3,0,0,0-.434.254v7.858L6.468,28.116V10.943A.294.294,0,0,0,6,10.712,8.045,8.045,0,0,0,4.245,12.37L1.971,15.585a1,1,0,0,1-.672.422,1,1,0,0,1-.773-.179L.431,15.76a1.035,1.035,0,0,1-.239-1.44ZM24.48,18.577V0h9.9l-.972,1.868a.508.508,0,0,0,0,.47l.972,1.868H25.5V18.637l-.506-.792ZM1.816,36H36L24.989,18.747,18.08,28.628a.294.294,0,0,1-.4.076l-5.891-3.938ZM7.273,3.49a3.68,3.68,0,0,0,.5,1.9,2.169,2.169,0,0,0,1.3,1.031,1.644,1.644,0,0,0,.773,0,2.169,2.169,0,0,0,1.3-1.031,3.68,3.68,0,0,0,.5-1.9,2.228,2.228,0,0,0-.8-1.891,2.337,2.337,0,0,0-1.389-.4,2.337,2.337,0,0,0-1.389.4,2.227,2.227,0,0,0-.8,1.891Z" transform="translate(0)"/></svg>