<svg id="Layer_1" data-name="Layer 1" xmlns="http://www.w3.org/2000/svg" viewBox="0 0 44.4 54.7"><defs><style>.cls-1{fill:#008f63;}.cls-2{fill:#e85625;}.cls-3{fill:#1b9bdc;}.cls-4{fill:none;stroke:#6f1500;stroke-width:0.2px;}.cls-5{fill:#6f1500;}.cls-6{fill:#2b1b28;}.cls-7{fill:#1a231e;}.cls-8{isolation:isolate;}.cls-9{fill:#0b6f55;}</style></defs><path class="cls-1" d="M22.9,0,19.8,6.83,18.5,9.62,8.1,32.42H36.9Z" transform="translate(0 -0.02)"/><path class="cls-2" d="M17.2,38.92H27.8v-6.4H17.2" transform="translate(0 -0.02)"/><path class="cls-3" d="M14.2,42a4.47,4.47,0,0,1,3.3-3.2H27.7A4.71,4.71,0,0,1,30.5,42Z" transform="translate(0 -0.02)"/><path class="cls-2" d="M11.1,20l12.5,4.5a5.51,5.51,0,0,1-4.4,3.09c-3.1.21-8.1-4-8.4-4.9A6.07,6.07,0,0,1,11.1,20Z" transform="translate(0 -0.02)"/><path class="cls-3" d="M27.5,10.62s3.8-1.1,5.9,4.21c-.8,1.09-3.4,1.79-3.4,1.79Z" transform="translate(0 -0.02)"/><path class="cls-2" d="M33.2,14.52,21,20.62a6.65,6.65,0,0,0,4.6,2c3.1.21,7.8-4,8.4-4.9S33.2,14.52,33.2,14.52Z" transform="translate(0 -0.02)"/><path class="cls-3" d="M13.5,16.62c-.1,0,.8-.09.4,0A4,4,0,0,0,11.1,20l2.4.8,1.6-3.5A2.33,2.33,0,0,0,13.5,16.62Z" transform="translate(0 -0.02)"/><path class="cls-2" d="M12.6,14.73s1.4,4.49,7,3.8,4.9-8,4.9-8l-.6-1.6-5.6-2.2Z" transform="translate(0 -0.02)"/><circle class="cls-2" cx="17.14" cy="16.1" r="1.5"/><circle class="cls-4" cx="17.14" cy="16.1" r="1.4"/><circle class="cls-2" cx="22.57" cy="12.66" r="1.5"/><circle class="cls-4" cx="22.57" cy="12.66" r="1.4"/><path class="cls-5" d="M19.3,16.53c2.1,1,3.5.2,2.9-1.8h.2s.6,1.6-.6,2.2a3,3,0,0,1-2.6-.3Z" transform="translate(0 -0.02)"/><path class="cls-6" d="M17.08,17.51a1.37,1.37,0,0,1-1.16-.76L18,15.06a1.52,1.52,0,0,1,.64,1.23A1.59,1.59,0,0,1,17.08,17.51Z" transform="translate(0 -0.02)"/><path class="cls-6" d="M17.09,17.41a1.31,1.31,0,0,0,1.36-1.23,1.36,1.36,0,0,0-.54-1.13l-2,1.6a1.28,1.28,0,0,0,1.16.76m0,.2a1.49,1.49,0,0,1-1.35-1l2.19-1.79a1.48,1.48,0,0,1-.84,2.76Z" transform="translate(0 -0.02)"/><path class="cls-6" d="M22.42,14.08a1.39,1.39,0,0,1-1.1-.84l2.2-1.55A1.54,1.54,0,0,1,24.07,13,1.61,1.61,0,0,1,22.42,14.08Z" transform="translate(0 -0.02)"/><path class="cls-6" d="M22.43,14a1.32,1.32,0,0,0,1.45-1.13,1.39,1.39,0,0,0-.46-1.17l-2.09,1.46a1.31,1.31,0,0,0,1.1.84m0,.2a1.52,1.52,0,0,1-1.28-1.07l2.32-1.63a1.49,1.49,0,0,1-1,2.7Z" transform="translate(0 -0.02)"/><path class="cls-7" d="M12.3,14.33,23.5,8.62s.6-.1.6.3a.88.88,0,0,1-.5,1c-1.4.8-2.1.4-2.6.9s-2.4,2.5-2.4,2.5c-.4.2.1-.2,0-.7s-1.3,2-3.5,2.4S12.3,14.33,12.3,14.33Z" transform="translate(0 -0.02)"/><path class="cls-3" d="M11.5,14.52c1.3,1.1,6.9-2.9,6.9-2.9a50,50,0,0,1,6.1-3.1c-3.5-4.8-7.4-5.9-7.4-5.9a4.94,4.94,0,0,0-4.8,1.11C10.2,5.62,11.5,11.92,11.5,14.52Z" transform="translate(0 -0.02)"/><g class="cls-8"><path class="cls-9" d="M13.6,48.62H13V46.83a1.34,1.34,0,0,0-.2-.6c-.1-.2-.3-.2-.6-.2h-.5c-.2,0-.3.09-.5.09l.1-.5a1,1,0,0,0,.5-.09h.6a.82.82,0,0,1,.5.09.5.5,0,0,1,.4.21,1.25,1.25,0,0,1,.3.4,1.08,1.08,0,0,1,.1.6v1.79Z" transform="translate(0 -0.02)"/><path class="cls-9" d="M16.6,47.12a1.23,1.23,0,0,1-.1.6c-.1.2-.1.31-.2.4a1.58,1.58,0,0,1-.4.31c-.1.1-.3.1-.5.19a1.27,1.27,0,0,1-.6.1c-.2,0-.4.1-.6.1l-.1-.5a.9.9,0,0,0,.5-.1c.2,0,.3-.1.5-.1l-.9-2.59h.6l.9,2.4a.35.35,0,0,0,.2-.1c.1-.1.1-.1.1-.2s.1-.2.1-.3V45.62h.6v1.5Z" transform="translate(0 -0.02)"/><path class="cls-9" d="M17.9,48.62h-.6v-3h.6Z" transform="translate(0 -0.02)"/><path class="cls-9" d="M20,48.62H18.5l.1-.5h.8v-1.7c0-.09,0-.2-.1-.2a.1.1,0,0,0-.1-.1h-.6l.1-.5h.7a.35.35,0,0,1,.2.1l.2.2a.35.35,0,0,0,.1.2v2.5Z" transform="translate(0 -0.02)"/><path class="cls-9" d="M21.4,48.62h-.6v-3h.6Z" transform="translate(0 -0.02)"/><path class="cls-9" d="M25.6,49.93H25v-3.1a1.42,1.42,0,0,0-.2-.6.85.85,0,0,0-.6-.2h-.5c-.1,0-.4.1-.5.1l.1-.5a.9.9,0,0,0,.5-.1h.6a.75.75,0,0,1,.5.1.52.52,0,0,1,.4.2,1.38,1.38,0,0,1,.3.4,1.08,1.08,0,0,1,.1.6v3.1Z" transform="translate(0 -0.02)"/><path class="cls-9" d="M26.9,48.62h-.6v-3h.6Z" transform="translate(0 -0.02)"/><path class="cls-9" d="M29,48.62H27.5l.1-.5h.8v-1.7c0-.09,0-.2-.1-.2a.1.1,0,0,0-.1-.1h-.6l.1-.5h.7a.35.35,0,0,1,.2.1l.2.2a.33.33,0,0,1,.1.2v2.5Z" transform="translate(0 -0.02)"/><path class="cls-9" d="M30.3,47.33h-.6V45.62h.6Z" transform="translate(0 -0.02)"/><path class="cls-9" d="M33.7,48.62h-.6V46.83c0-.21,0-.3-.1-.41a.22.22,0,0,0-.2-.2.35.35,0,0,1-.2-.1h-.9v2.5h-.6v-2.9c.2,0,.4-.1.6-.1h.8a1.27,1.27,0,0,1,.6.1c.2.1.3.1.4.2a.52.52,0,0,1,.2.41c0,.2.1.29.1.5v1.79Z" transform="translate(0 -0.02)"/></g><g class="cls-8"><path class="cls-9" d="M1.6,52.72l.8-1.6H3l-1.2,2.2v1.3H1.2v-1.4L0,51H.6Z" transform="translate(0 -0.02)"/><path class="cls-9" d="M5.9,53.22a1.48,1.48,0,0,1-.3,1,1.27,1.27,0,0,1-.9.4,1.44,1.44,0,0,1-.7-.19,1,1,0,0,1-.4-.5,1.85,1.85,0,0,1-.2-.7,1.49,1.49,0,0,1,.3-1,1.27,1.27,0,0,1,.9-.4,1,1,0,0,1,.9.4A1.26,1.26,0,0,1,5.9,53.22Zm-1.9,0c0,.6.2.9.7.9s.7-.3.7-.9-.2-.9-.7-.9a.76.76,0,0,0-.5.2A.85.85,0,0,0,4,53.22Z" transform="translate(0 -0.02)"/><path class="cls-9" d="M8.5,54.62l-.1-.4h0l-.3.31a.82.82,0,0,1-.5.09,1.17,1.17,0,0,1-.7-.19,1.17,1.17,0,0,1-.2-.7v-1.8h.6v1.69c0,.2,0,.41.1.5a.52.52,0,0,0,.4.2.76.76,0,0,0,.5-.2,1.13,1.13,0,0,0,.2-.69V52.12h.6v2.5Z" transform="translate(0 -0.02)"/><path class="cls-9" d="M10.8,54.22a.6.6,0,0,0,.4-.1v.5c-.1,0-.1.1-.2.1h-.3c-.5,0-.8-.3-.8-.9v-1.5H9.5V52l.4-.2.2-.6h.4v.6h.8v.4h-.8v1.4a.4.4,0,0,0,.1.31C10.6,54.22,10.7,54.22,10.8,54.22Z" transform="translate(0 -0.02)"/><path class="cls-9" d="M14.1,54.62h-.6V52.93a.75.75,0,0,0-.1-.5.52.52,0,0,0-.4-.2.76.76,0,0,0-.5.2,1.15,1.15,0,0,0-.2.69v1.5h-.6v-3.8h.6v1.5h0l.3-.3a.75.75,0,0,1,.5-.1c.7,0,1,.3,1,1v1.7Z" transform="translate(0 -0.02)"/><path class="cls-9" d="M16,53.72a1.47,1.47,0,0,1,.2-.6c.1-.19.3-.3.6-.5-.2-.19-.3-.3-.3-.5s-.1-.3-.1-.4a.88.88,0,0,1,.3-.6,1.38,1.38,0,0,1,1.4,0c.2.1.2.31.2.6a.76.76,0,0,1-.2.5c-.1.2-.3.31-.6.5l.8.81a3.5,3.5,0,0,0,.3-.81h.6a2.75,2.75,0,0,1-.5,1.1l.7.7h-.7l-.4-.4c-.2.1-.3.2-.5.3a1.27,1.27,0,0,1-.6.1,1.22,1.22,0,0,1-.9-.3C16.1,54.22,16,54,16,53.72Zm1.3.5a1.14,1.14,0,0,0,.8-.3l-.9-.9a1.38,1.38,0,0,0-.4.3.38.38,0,0,0-.1.3.54.54,0,0,0,.2.41C16.9,54.12,17.1,54.22,17.3,54.22Zm-.4-2.4a.37.37,0,0,0,.1.3c.1.1.1.2.2.31a1.23,1.23,0,0,0,.4-.31.35.35,0,0,0,.1-.3.4.4,0,1,0-.8,0Z" transform="translate(0 -0.02)"/><path class="cls-9" d="M23.3,54.62h-2V51h2v.5H21.9v1h1.3V53H21.9v1.09h1.4Z" transform="translate(0 -0.02)"/><path class="cls-9" d="M24.9,54.62a.89.89,0,0,1-.8-.4,1.48,1.48,0,0,1-.3-1,1.49,1.49,0,0,1,.3-1,1.28,1.28,0,0,1,.8-.4.81.81,0,0,1,.8.4h0v-1.5h.6v3.9h-.4l-.1-.4h0A1.06,1.06,0,0,1,24.9,54.62Zm.2-.4a.81.81,0,0,0,.5-.19.86.86,0,0,0,.2-.6v-.1a1.17,1.17,0,0,0-.2-.7.73.73,0,0,0-1,0,1.32,1.32,0,0,0,0,1.4C24.7,54.22,24.8,54.22,25.1,54.22Z" transform="translate(0 -0.02)"/><path class="cls-9" d="M29,54.62l-.1-.4h0l-.3.31a.82.82,0,0,1-.5.09,1.17,1.17,0,0,1-.7-.19,1.17,1.17,0,0,1-.2-.7v-1.8h.6v1.69c0,.2,0,.41.1.5a.52.52,0,0,0,.4.2.76.76,0,0,0,.5-.2,1.13,1.13,0,0,0,.2-.69V52.12h.6v2.5Z" transform="translate(0 -0.02)"/><path class="cls-9" d="M31.4,54.62a1,1,0,0,1-.9-.4,1.48,1.48,0,0,1-.3-1,1.33,1.33,0,0,1,.3-1,1.37,1.37,0,0,1,1-.4,2.35,2.35,0,0,1,.8.2l-.2.5a1.27,1.27,0,0,0-.6-.1c-.5,0-.7.3-.7.9a1.45,1.45,0,0,0,.2.7c.1.2.3.2.5.2a1.45,1.45,0,0,0,.7-.2v.5a.37.37,0,0,1-.3.1Z" transform="translate(0 -0.02)"/><path class="cls-9" d="M34.4,54.62l-.1-.4h0a.55.55,0,0,1-.4.31.82.82,0,0,1-.5.09.85.85,0,0,1-.6-.19.86.86,0,0,1-.2-.6.6.6,0,0,1,.3-.6,2,2,0,0,1,.9-.2h.5v-.1c0-.2,0-.3-.1-.4s-.2-.1-.4-.1a.6.6,0,0,0-.4.1c-.1,0-.2.1-.4.1l-.2-.4c.1-.1.3-.1.5-.2s.3-.1.5-.1a1.88,1.88,0,0,1,.8.2.78.78,0,0,1,.3.7v1.79Zm-.8-.4a.81.81,0,0,0,.5-.19.79.79,0,0,0,.2-.5v-.2H34a3.54,3.54,0,0,0-.6.1.5.5,0,0,0-.2.4.37.37,0,0,0,.1.3C33.3,54.22,33.4,54.22,33.6,54.22Z" transform="translate(0 -0.02)"/><path class="cls-9" d="M36.7,54.22a.6.6,0,0,0,.4-.1v.5c-.1,0-.1.1-.2.1h-.3c-.5,0-.8-.3-.8-.9v-1.5h-.4V52l.4-.2.2-.6h.4v.6h.8v.4h-.8v1.4a.4.4,0,0,0,.1.31C36.5,54.22,36.6,54.22,36.7,54.22Z" transform="translate(0 -0.02)"/><path class="cls-9" d="M37.6,51.22c0-.1,0-.19.1-.19s.1-.1.2-.1.2,0,.2.1.1.09.1.19,0,.2-.1.2-.1.1-.2.1-.2,0-.2-.1S37.6,51.32,37.6,51.22Zm.6,3.4h-.6V51.93h.6Z" transform="translate(0 -0.02)"/><path class="cls-9" d="M41.4,53.22a1.48,1.48,0,0,1-.3,1,1.27,1.27,0,0,1-.9.4,1.44,1.44,0,0,1-.7-.19,1,1,0,0,1-.4-.5,1.85,1.85,0,0,1-.2-.7,1.49,1.49,0,0,1,.3-1,1.33,1.33,0,0,1,1-.4,1,1,0,0,1,.9.4A1.66,1.66,0,0,1,41.4,53.22Zm-2,0c0,.6.2.9.7.9s.7-.3.7-.9-.2-.9-.7-.9a.76.76,0,0,0-.5.2A1.48,1.48,0,0,0,39.4,53.22Z" transform="translate(0 -0.02)"/><path class="cls-9" d="M44.4,54.62h-.6V52.93a.75.75,0,0,0-.1-.5.52.52,0,0,0-.4-.2.76.76,0,0,0-.5.2,1.15,1.15,0,0,0-.2.69v1.5H42V51.93h.4l.1.4h0l.3-.3a.75.75,0,0,1,.5-.1.9.9,0,0,1,1,1v1.69Z" transform="translate(0 -0.02)"/></g></svg>