<svg xmlns="http://www.w3.org/2000/svg" width="21.532" height="20.187" viewBox="0 0 21.532 20.187"><defs><style>.a{fill:#37c56b;}</style></defs><path class="a" d="M.673,18.682H9.42V16.663a.671.671,0,0,1,.244-.518A.661.661,0,0,1,10.217,16l10.766,2.019a.671.671,0,0,1,.549.661v14.8a.672.672,0,0,1-.549.661L10.217,36.164a.633.633,0,0,1-.124.012A.673.673,0,0,1,9.42,35.5V33.485H.673A.673.673,0,0,1,0,32.812V19.355A.673.673,0,0,1,.673,18.682Zm11.606,9.65a.672.672,0,1,0,1.012.885l1.957-2.235,1.716,2.207a.674.674,0,0,0,1.063-.828L16.15,25.95,18,23.835a.673.673,0,0,0-1.013-.885l-1.679,1.919-1.993-2.562a.673.673,0,0,0-1.062.828L14.406,25.9ZM1.346,32.139H9.42V30.793H7.4a.673.673,0,1,1,0-1.346H9.42V28.1H7.4a.673.673,0,1,1,0-1.346H9.42V25.41H7.4a.673.673,0,1,1,0-1.346H9.42V22.719H7.4a.673.673,0,1,1,0-1.346H9.42V20.028H1.346Z" transform="translate(0 -15.989)"/></svg>