<svg xmlns="http://www.w3.org/2000/svg" width="38.03" height="34.092" viewBox="0 0 38.03 34.092"><defs><style>.a{fill:#747474;}</style></defs><g transform="translate(0 -26.508)"><path class="a" d="M194.809,168.062c-.291,0-.579.011-.869.017l1.316,4.05c.514-.018,1.023-.029,1.528-.037,1.032-.016,2.05-.043,3.1-.149l-1.329-4.089A34.4,34.4,0,0,1,194.809,168.062Z" transform="translate(-179.535 -130.847)"/><path class="a" d="M167.565,80.907c-.557.009-1.036.07-1.554.106l1.357,4.177c.522-.018,1.039-.03,1.552-.038,1.024-.016,2.035-.043,3.074-.147l-1.4-4.307A27.432,27.432,0,0,1,167.565,80.907Z" transform="translate(-153.68 -50.165)"/><path class="a" d="M263.084,58.926l-1.363-4.2a16.944,16.944,0,0,1-4.188,1.532l1.409,4.337A16.786,16.786,0,0,0,263.084,58.926Z" transform="translate(-238.404 -26.127)"/><path class="a" d="M104.7,173.841l1.341,4.126a17.394,17.394,0,0,1,4.319-1.129l-1.33-4.092A15.394,15.394,0,0,0,104.7,173.841Z" transform="translate(-96.927 -135.376)"/><path class="a" d="M26.758,207.232a33.535,33.535,0,0,1,3.885-2.467l-1.332-4.1a43.371,43.371,0,0,0-3.862,2.536Z" transform="translate(-23.559 -161.222)"/><path class="a" d="M291.272,144.245l-1.332-4.1a18.792,18.792,0,0,1-4.151,1.648l1.342,4.129A16.8,16.8,0,0,0,291.272,144.245Z" transform="translate(-264.562 -105.197)"/><path class="a" d="M225.929,252.063a34.285,34.285,0,0,1-3.767.212c-.283,0-.563.011-.844.017l1.379,4.245c.273-.006.546-.013.821-.017a34.256,34.256,0,0,0,3.789-.219Z" transform="translate(-204.878 -208.801)"/><path class="a" d="M318.664,228.5l-1.382-4.252a18.825,18.825,0,0,1-4.149,1.651l1.372,4.224A15.651,15.651,0,0,0,318.664,228.5Z" transform="translate(-289.874 -183.051)"/><path class="a" d="M132.054,258.088l1.377,4.238a15.478,15.478,0,0,1,4.334-1.084L136.386,257A15.466,15.466,0,0,0,132.054,258.088Z" transform="translate(-122.245 -213.37)"/><path class="a" d="M52.764,287.331l.91,2.8a1.115,1.115,0,0,0,1.7.574A26.418,26.418,0,0,1,58,289.034L56.627,284.8A42.314,42.314,0,0,0,52.764,287.331Z" transform="translate(-48.845 -239.106)"/><path class="a" d="M77.053,89.109l1.364,4.2a17.406,17.406,0,0,1,4.317-1.136l-1.341-4.128A22.977,22.977,0,0,0,77.053,89.109Z" transform="translate(-71.33 -56.964)"/><path class="a" d="M1.171,121.138a34,34,0,0,1,3.884-2.469L3.67,114.409a28.24,28.24,0,0,0-3.193,2,1.114,1.114,0,0,0-.424,1.255Z" transform="translate(0 -81.372)"/><path class="a" d="M353.8,60.545a1.114,1.114,0,0,0,.715-1.4l-10.4-31.863a1.114,1.114,0,0,0-2.119.689l10.4,31.863a1.114,1.114,0,0,0,1.4.715Z" transform="translate(-316.536)"/></g></svg>