<svg xmlns="http://www.w3.org/2000/svg" width="34" height="34" viewBox="0 0 34 34"><defs><style>.a{fill:#11a11a;}</style></defs><path class="a" d="M17,0A17,17,0,1,0,34,17,17,17,0,0,0,17,0Zm.607,4.9,5.91-2.362a15.9,15.9,0,0,1,1.942,1.047l.015.01a15.958,15.958,0,0,1,1.749,1.283l.048.042q.372.317.724.656c.03.029.061.057.09.086q.369.36.715.743l.056.066c.2.227.4.461.585.7.045.057.091.113.135.17.2.265.4.535.59.813l-1.178,5.008-5.8,1.932-5.584-4.468ZM4.423,7.344q.066-.085.134-.17.28-.355.579-.693L5.2,6.409q.344-.383.712-.742c.028-.028.056-.057.086-.082q.349-.337.718-.652l.057-.048A16.02,16.02,0,0,1,8.5,3.61L8.526,3.6a15.918,15.918,0,0,1,1.93-1.046L16.393,4.9v5.723l-5.584,4.467-5.8-1.929L3.835,8.155c.189-.278.385-.547.588-.811ZM3.74,25.7q-.25-.381-.478-.776l-.037-.064q-.227-.393-.429-.8l0-.009a15.788,15.788,0,0,1-.746-1.757v-.006c-.1-.283-.193-.574-.278-.866l-.031-.108q-.117-.411-.211-.832c-.006-.027-.012-.053-.018-.081a15.772,15.772,0,0,1-.3-1.919l3.46-4.151,5.756,1.919L12.1,22.93,9.35,26.582ZM20.774,32.41c-.283.07-.574.131-.865.185l-.123.022c-.248.044-.5.082-.749.113l-.2.026c-.233.027-.468.048-.7.064-.074,0-.147.012-.222.017-.3.019-.605.029-.911.029q-.42,0-.836-.022c-.033,0-.066-.006-.1-.008q-.37-.021-.737-.056l-.028-.005a16.148,16.148,0,0,1-1.6-.255L10.35,27.272l2.7-3.6h7.9L23.694,27.3ZM32.5,20.4c-.006.027-.012.053-.018.081q-.1.42-.211.832l-.03.108c-.085.292-.177.581-.278.866v.006a15.736,15.736,0,0,1-.746,1.757l0,.009q-.2.407-.429.8l-.037.064q-.227.4-.477.775l-5.591.882L21.91,22.928l1.67-6.681,5.756-1.919L32.8,18.48a15.736,15.736,0,0,1-.3,1.921Zm0,0"/></svg>