<svg xmlns="http://www.w3.org/2000/svg" width="78.87" height="65.138" viewBox="0 0 78.87 65.138">
  <path id="forest_2_" data-name="forest(2)" d="M78.87,75.97a18.3,18.3,0,0,0-28.36-15.3,57.1,57.1,0,0,0-3.034-9.542C44.15,43.308,39.794,39,35.21,39s-8.945,4.29-12.266,12.08a56.184,56.184,0,0,0-2.9,8.98l-4.6-16.853a1.408,1.408,0,0,0-2.718,0L.05,89.684a1.408,1.408,0,0,0,1.359,1.779H12.676V102.73a1.408,1.408,0,0,0,2.817,0V91.463H26.76a1.4,1.4,0,0,0,1.4-1.541A16.792,16.792,0,0,0,33.8,91.4V102.73a1.408,1.408,0,0,0,2.817,0V91.4a16.852,16.852,0,0,0,9.616-4.035,18.305,18.305,0,0,0,12.919,6.855v8.507a1.408,1.408,0,0,0,2.817,0v-8.5A18.334,18.334,0,0,0,78.87,75.97ZM24.916,88.646H15.492V86.413l2.492-2.492a1.408,1.408,0,0,0-1.992-1.992l-.5.5V73.154a1.408,1.408,0,0,0-2.817,0v6.459l-1.821-1.821a1.408,1.408,0,0,0-1.992,1.992L12.676,83.6v5.05H3.252L14.084,48.93l4.772,17.5a60.739,60.739,0,0,0-.569,8.114,16.9,16.9,0,0,0,6.391,13.236Zm11.7-2.233,5.221-5.221A1.408,1.408,0,0,0,39.848,79.2l-3.229,3.229V76.554l3.813-3.813a1.408,1.408,0,1,0-1.992-1.992L36.618,72.57V68.928a1.408,1.408,0,1,0-2.817,0V79.612l-3.229-3.229a1.408,1.408,0,0,0-1.992,1.992L33.8,83.6v4.979A14.126,14.126,0,0,1,21.1,74.54a59.978,59.978,0,0,1,4.431-22.356c2.809-6.589,6.335-10.368,9.675-10.368s6.859,3.8,9.674,10.415A59.978,59.978,0,0,1,49.316,74.54a14.125,14.125,0,0,1-12.7,14.035ZM61.97,91.4V89.23l5.221-5.221A1.408,1.408,0,0,0,65.2,82.017L61.97,85.246V75.97a1.408,1.408,0,0,0-2.817,0v6.459L55.923,79.2a1.408,1.408,0,0,0-1.992,1.992l5.221,5.221V91.4a15.493,15.493,0,0,1-10.927-6.056,16.846,16.846,0,0,0,3.907-10.8,62.07,62.07,0,0,0-1.008-10.855A15.491,15.491,0,1,1,61.97,91.4Z" transform="translate(0 -39)" fill="#00c466"/>
</svg>
