<svg xmlns="http://www.w3.org/2000/svg" width="30.925" height="34.5" viewBox="0 0 30.925 34.5"><defs><style>.a{fill:#747474;}</style></defs><g transform="translate(-25.971 0)"><path class="a" d="M56.9,25.507l-.442-2.017-2.435.533-2.757-1.767,3.271-.716-.442-2.017L48.8,20.681,46.6,19.266V15.229L48.8,13.8l5.294,1.126.43-2.02-3.275-.7,2.747-1.783,2.438.519.43-2.02-1.847-.393.393-1.847-2.02-.43L52.87,8.695l-2.747,1.783.7-3.275-2.02-.43-1.126,5.294L45.5,13.481l-3.031-1.515V9.418L46.293,5.59l-1.46-1.46L42.466,6.5V3.223L44.228,1.46,42.768,0,41.433,1.335,40.1,0l-1.46,1.46L40.4,3.223V6.5L38.033,4.13l-1.46,1.46L40.4,9.418v2.548l-3.034,1.517-2.189-1.4L34.02,6.793,32,7.234l.716,3.271L29.962,8.738,29.428,6.3l-2.017.442.4,1.844-1.844.4.442,2.017,2.435-.533L31.6,12.244l-3.271.716.442,2.017,5.288-1.158,2.207,1.414v4.037l-2.2,1.429-5.295-1.126-.43,2.02,3.275.7-2.747,1.783-2.438-.519L26,25.574l1.847.393-.393,1.847,2.02.43L30,25.8l2.747-1.783-.7,3.275,2.02.43,1.126-5.294,2.177-1.413L40.4,22.534v2.548L36.573,28.91l1.46,1.46L40.4,28v3.275L38.638,33.04,40.1,34.5l1.335-1.335L42.768,34.5l1.46-1.46-1.763-1.763V28l2.367,2.367,1.46-1.46-3.828-3.828V22.534L45.5,21.017l2.189,1.4,1.158,5.288,2.017-.442L50.148,24l2.757,1.767.533,2.435,2.017-.442-.4-1.844ZM44.531,19.193l-3.1,1.549-3.1-1.549V15.307l3.1-1.549,3.1,1.549Z" transform="translate(0)"/></g></svg>