<svg xmlns="http://www.w3.org/2000/svg" width="24.151" height="27.481" viewBox="0 0 24.151 27.481"><defs><style>.a{fill:#575757;}</style></defs><g transform="translate(-31.026 0)"><path class="a" d="M39.882,0a.805.805,0,0,0-.805.805V11.057a.269.269,0,0,1-.268.268H36.662V.805a.805.805,0,1,0-1.61,0v10.52H32.9a.269.269,0,0,1-.268-.268V.805a.805.805,0,0,0-1.61,0V11.057A1.881,1.881,0,0,0,32.9,12.935h2.147V14.6h-.805a.805.805,0,0,0-.805.805v7.807a2.855,2.855,0,0,0,.028,2.945,2.81,2.81,0,0,0,4.771,0,2.915,2.915,0,0,0,.027-2.945V15.4a.805.805,0,0,0-.805-.805h-.8V12.935h2.147a1.881,1.881,0,0,0,1.879-1.879V.805A.805.805,0,0,0,39.882,0ZM36.93,24.142a1.177,1.177,0,0,1-.058,1.163,1.2,1.2,0,0,1-2.036,0,1.177,1.177,0,0,1-.058-1.163c.14-.318.274-.461.274-.744V16.21h1.6V23.4c0,.284.134.427.274.743Z" transform="translate(0 0)"/><path class="a" d="M277.111.14a.805.805,0,0,0-.907,0,11.818,11.818,0,0,0-5.178,9.782v4.363a1.881,1.881,0,0,0,1.879,1.879h2.952V17.82h-.808a.805.805,0,0,0-.805.805v4.59a2.854,2.854,0,0,0,.03,2.943,2.808,2.808,0,0,0,4.768,0,2.917,2.917,0,0,0,.027-2.942V18.625a.805.805,0,0,0-.805-.805h-.8V16.162h2.949a1.881,1.881,0,0,0,1.879-1.879V9.926A11.816,11.816,0,0,0,277.111.14Zm.563,25.165a1.2,1.2,0,0,1-2.034,0,1.471,1.471,0,0,1,.132-1.55c.145-.3.054-.163.082-4.326h1.6c.028,4.158-.063,4.031.083,4.328A1.469,1.469,0,0,1,277.674,25.305Zm3.01-11.021a.269.269,0,0,1-.268.268h-2.949V10.522a.805.805,0,1,0-1.61,0v4.031H272.9a.269.269,0,0,1-.268-.268V9.921A10.208,10.208,0,0,1,276.657,1.8a10.207,10.207,0,0,1,4.028,8.13Z" transform="translate(-227.118)"/></g></svg>