<svg xmlns="http://www.w3.org/2000/svg" width="23.862" height="26.279" viewBox="0 0 23.862 26.279"><defs><style>.a{fill:#575757;}</style></defs><g transform="translate(0.03 0.028)"><path class="a" d="M25.855,8.861c0-.062-3.944,0-12.933,0-.067-.133,0,1.342,0,6.962-.219-.051-2.727.123-10.891,0-.052-.158-.052-.033,0,17.946-.042.061.079,1.457,0,1.336H25.855ZM3.665,17.437c9.065-.085,9.257-.081,9.257,0V33.769H3.665S3.667,17.353,3.665,17.437Zm10.627-7.178H24.517V33.769H14.292Z" transform="translate(-2.023 -8.861)"/><path class="a" d="M298.076,55.12h-.964a.565.565,0,0,0-.565.565v.964a.565.565,0,0,0,.565.565h.964a.565.565,0,0,0,.565-.565v-.964A.564.564,0,0,0,298.076,55.12Z" transform="translate(-278.183 -51.941)"/><path class="a" d="M298.076,55.12h-.964a.565.565,0,0,0-.565.565v.964a.565.565,0,0,0,.565.565h.964a.565.565,0,0,0,.565-.565v-.964A.564.564,0,0,0,298.076,55.12Z" transform="translate(-281.949 -51.941)"/><path class="a" d="M298.076,55.12h-.964a.565.565,0,0,0-.565.565v.964a.565.565,0,0,0,.565.565h.964a.565.565,0,0,0,.565-.565v-.964A.564.564,0,0,0,298.076,55.12Z" transform="translate(-278.183 -48.941)"/><path class="a" d="M298.076,55.12h-.964a.565.565,0,0,0-.565.565v.964a.565.565,0,0,0,.565.565h.964a.565.565,0,0,0,.565-.565v-.964A.564.564,0,0,0,298.076,55.12Z" transform="translate(-281.949 -48.941)"/><path class="a" d="M298.076,55.12h-.964a.565.565,0,0,0-.565.565v.964a.565.565,0,0,0,.565.565h.964a.565.565,0,0,0,.565-.565v-.964A.564.564,0,0,0,298.076,55.12Z" transform="translate(-278.183 -45.941)"/><path class="a" d="M298.076,55.12h-.964a.565.565,0,0,0-.565.565v.964a.565.565,0,0,0,.565.565h.964a.565.565,0,0,0,.565-.565v-.964A.564.564,0,0,0,298.076,55.12Z" transform="translate(-281.949 -45.941)"/><path class="a" d="M298.076,55.12h-.964a.565.565,0,0,0-.565.565v.964a.565.565,0,0,0,.565.565h.964a.565.565,0,0,0,.565-.565v-.964A.564.564,0,0,0,298.076,55.12Z" transform="translate(-278.183 -42.941)"/><path class="a" d="M298.076,55.12h-.964a.565.565,0,0,0-.565.565v.964a.565.565,0,0,0,.565.565h.964a.565.565,0,0,0,.565-.565v-.964A.564.564,0,0,0,298.076,55.12Z" transform="translate(-278.183 -39.941)"/><path class="a" d="M298.076,55.12h-.964a.565.565,0,0,0-.565.565v.964a.565.565,0,0,0,.565.565h.964a.565.565,0,0,0,.565-.565v-.964A.564.564,0,0,0,298.076,55.12Z" transform="translate(-278.183 -36.941)"/><path class="a" d="M298.076,55.12h-.964a.565.565,0,0,0-.565.565v.964a.565.565,0,0,0,.565.565h.964a.565.565,0,0,0,.565-.565v-.964A.564.564,0,0,0,298.076,55.12Z" transform="translate(-281.949 -42.941)"/><path class="a" d="M298.076,55.12h-.964a.565.565,0,0,0-.565.565v.964a.565.565,0,0,0,.565.565h.964a.565.565,0,0,0,.565-.565v-.964A.564.564,0,0,0,298.076,55.12Z" transform="translate(-281.949 -39.941)"/><path class="a" d="M298.076,55.12h-.964a.565.565,0,0,0-.565.565v.964a.565.565,0,0,0,.565.565h.964a.565.565,0,0,0,.565-.565v-.964A.564.564,0,0,0,298.076,55.12Z" transform="translate(-281.949 -36.941)"/><path class="a" d="M75.823,168.92h-.917a.537.537,0,0,0-.537.537v.917a.537.537,0,0,0,.537.537h.917a.537.537,0,0,0,.537-.537v-.917A.537.537,0,0,0,75.823,168.92Z" transform="translate(-70.912 -158.669)"/><path class="a" d="M75.823,168.92h-.917a.537.537,0,0,0-.537.537v.917a.537.537,0,0,0,.537.537h.917a.537.537,0,0,0,.537-.537v-.917A.537.537,0,0,0,75.823,168.92Z" transform="translate(-70.912 -150.879)"/><path class="a" d="M135.429,168.92h-.917a.537.537,0,0,0-.537.537v.917a.537.537,0,0,0,.537.537h.917a.537.537,0,0,0,.537-.537v-.917A.537.537,0,0,0,135.429,168.92Z" transform="translate(-127.009 -158.669)"/><path class="a" d="M135.429,168.92h-.917a.537.537,0,0,0-.537.537v.917a.537.537,0,0,0,.537.537h.917a.537.537,0,0,0,.537-.537v-.917A.537.537,0,0,0,135.429,168.92Z" transform="translate(-127.009 -150.879)"/><path class="a" d="M75.823,225.82h-.917a.537.537,0,0,0-.537.537v.917a.537.537,0,0,0,.537.537h.917a.537.537,0,0,0,.537-.537v-.917A.537.537,0,0,0,75.823,225.82Z" transform="translate(-70.912 -212.972)"/><path class="a" d="M75.823,282.72h-.917a.537.537,0,0,0-.537.537v.917a.537.537,0,0,0,.537.537h.917a.537.537,0,0,0,.537-.537v-.917A.537.537,0,0,0,75.823,282.72Z" transform="translate(-70.912 -267.275)"/><path class="a" d="M135.429,225.82h-.917a.537.537,0,0,0-.537.537v.917a.537.537,0,0,0,.537.537h.917a.537.537,0,0,0,.537-.537v-.917A.537.537,0,0,0,135.429,225.82Z" transform="translate(-127.009 -212.972)"/><path class="a" d="M135.429,282.72h-.917a.537.537,0,0,0-.537.537v.917a.537.537,0,0,0,.537.537h.917a.537.537,0,0,0,.537-.537v-.917A.537.537,0,0,0,135.429,282.72Z" transform="translate(-127.009 -267.275)"/></g></svg>