<svg xmlns="http://www.w3.org/2000/svg" width="32.326" height="32.323" viewBox="0 0 32.326 32.323"><defs><style>.a{fill:#1ea526;}</style></defs><g transform="translate(0 -0.375)"><path class="a" d="M31.965,16.028,27.483,14.46a7,7,0,0,0-8.992,4.5l-1.173,3.713-1.155.866V15.785a3.085,3.085,0,0,1,1.377-2.571l-.006-.009a.529.529,0,0,0,.087-.059,10.672,10.672,0,0,0,3.1-8.209L20.474.88A.538.538,0,0,0,19.429.732L17.687,5.609a16.852,16.852,0,0,0-.984,5.677V12.5a4.154,4.154,0,0,0-1.616,3.286v1.067l-.548-.548A9.492,9.492,0,0,0,8.047,7.517L4.482,6.332a.538.538,0,0,0-.7.628l.593,2.673a9.452,9.452,0,0,0,9.283,7.443h.124l1.3,1.3V30.211l-1.077-.539V28.564a8.431,8.431,0,0,0-11.1-8L.37,21.413a.539.539,0,0,0,0,1.024l.577.192a24.617,24.617,0,0,1,7.62,4.144l4.565,3.652a.522.522,0,0,0,.1.054l0,.007,1.857.929V32.7h1.077V24.887l1.94-1.455-.006-.007a.6.6,0,0,0,.063-.042A21.775,21.775,0,0,1,30.794,17.2l1.06-.132a.539.539,0,0,0,.111-1.043Zm0,0"/></g></svg>