<svg xmlns="http://www.w3.org/2000/svg" width="43" height="56.067" viewBox="0 0 43 56.067"><defs><style>.a{fill:#1a1818;}.b{fill:#fff;}.c{fill:#59a437;}.d{fill:#82511b;}.e{fill:#0061ad;}.f{fill:#040506;}</style></defs><g transform="translate(-555.698 -7.567)"><g transform="translate(555.698 7.567)"><path class="a" d="M595.856,42.745h2.406l-1.209,2.724h.439l1.173-2.724V42.42h-2.81Zm.475,3.778V43.461l-.41.238v2.823Zm-2.589-4.1H592.7v.325h1.02c.528,0,.8.372.8.914v1.81h.41V43.718c0-1.03-.61-1.3-1.185-1.3m-1.891,0h-.411v4.1h.411Zm-6.468.325h2.4L586.58,45.47h.439l1.173-2.725V42.42h-2.809Zm.475,3.778V43.461l-.41.238v2.823Zm-1.391-2.445V42.42h-.41V44.3l.41-.221Zm-4.344-1.658a3.961,3.961,0,0,1,.375,1.448c-.012.1-.041.21-.053.285,0,0-.228,1.123-.252,1.315h.41l.23-1.134c.164-.809.492-1.659,1.114-1.659.48,0,.768.716.768,1.315,0,.676-.257,1.23-.827,1.23a.973.973,0,0,1-.538-.135v.35a1.612,1.612,0,0,0,.557.122c.5,0,1.233-.337,1.233-1.577,0-.809-.34-1.63-1.156-1.63-.657,0-.921.494-1.144.926a7.273,7.273,0,0,0-.276-.855Zm-3.043,2.432V42.745h.9c.563,0,.757.414.757.88V45.47h.41V43.5a1.063,1.063,0,0,0-1.132-1.076h-1.936v.325h.587v2.037c0,.559-.523.372-.652.314v.314c.206.122,1.062.245,1.062-.559m-4.474-2.107-1.138,2.725h.446l1.138-2.672V42.42h-1.824V41.383h-.412v1.362Zm-2.617,1.333V42.42h-.41V44.3l.41-.221ZM568.1,42.42V43.9a1.159,1.159,0,0,1-1.326,1.316.973.973,0,0,1-1.068-.78,2.321,2.321,0,0,0,1-.267.815.815,0,0,0,.381-.779V42.42h-.41v1c0,.406-.106.465-.3.581a1.707,1.707,0,0,1-.7.157V42.42h-.41v1.739a1.358,1.358,0,0,0,1.525,1.374c1.085,0,1.725-.46,1.725-1.658V42.42Zm-5.077,0h-1.044v.325H563c.528,0,.8.373.8.914v1.81h.412V43.718c0-1.03-.611-1.3-1.185-1.3m-2.488,1.734a1.454,1.454,0,0,0,.61-1.374v-.36h-.421v.418c0,.316.005.828-.376,1.066-.087-.088-.557-.7-1.255-1.484h-.552c.465.494.851.972.851.972a1.873,1.873,0,0,0-.54.7,3.28,3.28,0,0,0-.158,1.374h.416a4.572,4.572,0,0,1,.141-1.316,1.36,1.36,0,0,1,.352-.524,10.74,10.74,0,0,1,1.3,1.84h.463a11.215,11.215,0,0,0-.834-1.316m-3.021-1.409-1.138,2.725h.445l1.138-2.672V42.42h-1.824V41.383h-.41v1.362Z" transform="translate(-555.689 3.33)"/><path class="b" d="M555.728,7.567h42.961V50.629H555.728Z" transform="translate(-555.689 -7.567)"/><path class="c" d="M569.284,33.176l15-25.609h13.3l-15,25.609Zm-9.965,17.018,9.139-15.607v1.728h9.216l-5.911,10.3V38.3h-3.3V50.194Z" transform="translate(-554.578 -7.567)"/><path class="c" d="M568.74,40.931V37.508h2.832l-1.986,3.423Z" transform="translate(-551.52 2.023)"/><path class="d" d="M582.777,49.771V46.348h3.352l7.756-13.424V49.771Zm11.108-17.018H580.058L593.884,8.935ZM570.179,49.771,579.5,33.713v2.18h9.136l-5.86,10.3V37.878H579.5V49.771Z" transform="translate(-550.884 -7.144)"/><path class="e" d="M555.728,7.567h28.436L569.3,33.176H558.537V29.744h-2.809Zm5.675,39.2-1.988,3.423h-3.687V36.316h8.667l-5.947,10.455Z" transform="translate(-555.689 -7.567)"/><path class="b" d="M565.43,31.11h.953V25.532l1.859-1.861h1.946l.649-.648h-2.12l1.6-1.6h3.114l.779-.779H571.1l1.168-1.168h1.773v-.691h-1.082L574.34,17.4v-1l-1.557,1.557V16.1l-.736.735v1.73l-1.124,1.125v-1.6l-.779.778v1.688l-1.6,1.6V20.471l-.779.779v1.73l-1.47,1.47c.043-.042,0-3.416,0-3.416l1.557-1.558h1.558v-.648h-1.082l3.2-3.2h2.336v-.648h-1.774l1.04-1.038-.261-.563-.475.477V12.514l-.736-.736v2.811l-3.546,3.547V16.362l-.649.649v1.816l-1.211,1.211v-3.33l.952-.952H569.5l.691-.691H567.68l1.254-1.254h1.9v-.693h-1.254l1.773-1.773-.6-.563-1.211,1.211V10.351l-.606-.606V12.9l-1.125,1.125V11.864l-.735.736v2.075l-.779.778V12.037L568.5,9.831h-.909l-1.3,1.3V9.485h-.778v1.643l-1.3-1.3h-.909l2.206,2.206v3.416l-.779-.778V12.6L564,11.864v2.162L562.879,12.9V9.744l-.606.606v1.643l-1.21-1.211-.606.563,1.773,1.773h-1.253v.693h1.9l1.254,1.254h-2.509l.691.691h2.293l.952.952v3.33l-1.211-1.211V17.011l-.649-.649v1.774l-3.546-3.547V11.778l-.736.736v1.341l-.475-.477-.259.563,1.038,1.038h-1.774v.648h2.336l3.2,3.2H562.4v.648h1.558l1.557,1.558s-.045,3.374,0,3.416l-1.47-1.47V21.25l-.779-.779v1.688l-1.6-1.6V18.871l-.779-.778v1.6l-1.123-1.125v-1.73l-.736-.735v1.858l-1.557-1.557v1l1.384,1.384h-1.082v.691h1.773l1.168,1.168H557.6l.779.779H561.5l1.6,1.6h-2.119l.648.648h1.946l1.859,1.861V31.11Z" transform="translate(-555.149 -6.974)"/><path class="f" d="M555.7,50.812h.467V49.588l.577-.541,1.269,1.765h.628l-1.545-2.1,1.514-1.418h-.67l-1.772,1.719V47.3H555.7v3.513Zm7.2,0h.468V49.588l.577-.541,1.269,1.765h.627l-1.544-2.1,1.514-1.418h-.672l-1.771,1.719V47.3H562.9v3.513Zm7.2,0h2.257v-.418h-1.778V47.3H570.1v3.513Zm6.481-1.143h1.21v-.443h-1.21Zm7.462-2.37h-.475V49.64a1.664,1.664,0,0,1-.073.6.494.494,0,0,1-.5.261.508.508,0,0,1-.4-.144.627.627,0,0,1-.129-.432v-.25h-.451v.25a.9.9,0,0,0,.282.762,1.094,1.094,0,0,0,.681.215.969.969,0,0,0,.936-.45,1.473,1.473,0,0,0,.133-.691V47.3Zm4.635,3.513h.458V47.977l1.792,2.835h.538V47.3H591v2.839L589.239,47.3h-.565v3.513Zm7.518,0h.479v-1.6h1.738V48.8h-1.738V47.728h1.977V47.3h-2.456v3.513Zm-40.494,0h.467V49.588l.577-.541,1.269,1.765h.628l-1.545-2.1,1.514-1.418h-.67l-1.772,1.721V47.3H555.7v3.513Zm7.2,0h.468V49.588l.577-.541,1.269,1.765h.627l-1.544-2.1,1.514-1.418h-.672l-1.771,1.721V47.3H562.9v3.513Zm7.2,0h2.257v-.418h-1.778V47.3H570.1v3.513Zm6.481-1.143h1.21v-.443h-1.21Zm7.462-2.37h-.475V49.64a1.664,1.664,0,0,1-.073.6.494.494,0,0,1-.5.261.508.508,0,0,1-.4-.144.626.626,0,0,1-.129-.431v-.251h-.451v.251a.9.9,0,0,0,.282.761,1.094,1.094,0,0,0,.681.215.969.969,0,0,0,.936-.45,1.473,1.473,0,0,0,.133-.691V47.3Zm4.635,3.513h.458V47.977l1.792,2.835h.538V47.3H591v2.839L589.239,47.3h-.565v3.513Zm7.518,0h.479v-1.6h1.738V48.8h-1.738V47.728h1.977V47.3h-2.456v3.513Z" transform="translate(-555.698 5.161)"/></g></g></svg>