<svg id="Layer_1" data-name="Layer 1" xmlns="http://www.w3.org/2000/svg" viewBox="0 0 72.1 56.38"><defs><style>.cls-1{fill:#966427;}.cls-2{fill:#88c63d;}.cls-3{fill:#0d5736;}.cls-4{fill:#8d6520;}.cls-5,.cls-6{isolation:isolate;}.cls-6{font-size:6.01px;font-family:MyriadHebrew-Regular, Myriad Hebrew;}</style></defs><g id="Group_676" data-name="Group 676"><path id="Path_456" data-name="Path 456" class="cls-1" d="M5.28,10.05h8.59v33.7H9.49v-30H5.28Z" transform="translate(-5.28 -3.57)"/><path id="Path_457" data-name="Path 457" class="cls-2" d="M59.72,3.57,69.38,21s4.76,14.18-9,16.45c0,.32-13.45-1.14-10.54-14.75C50.75,19.37,59.72,3.57,59.72,3.57Z" transform="translate(-5.28 -3.57)"/><path id="Path_458" data-name="Path 458" class="cls-3" d="M54.93,26.9l-1.14,1L59,33.06V49.91H60.6v-22l5.34-5.5-1.46-1.3L60.6,25.93v-9.4H59v14.1Z" transform="translate(-5.28 -3.57)"/><path id="Subtraction_5" data-name="Subtraction 5" class="cls-4" d="M57.13,43.92h0A17.83,17.83,0,0,1,54,9.31l-2.79,6.9A13.06,13.06,0,0,0,57.13,39.1v4.81Zm5.66-.13h0V38.92A13.06,13.06,0,0,0,69,17.23l-1.09-2.44L65.28,9.37A17.83,17.83,0,0,1,62.8,43.79Z" transform="translate(-5.28 -3.57)"/><path id="Path_460" data-name="Path 460" class="cls-1" d="M17.11,20.52c.16.23,3.88-.1,3.88-.1S21,12.48,29.1,13c.16,0,6.8,1,7,6.64s-6.15,10.86-6.15,10.86l-12.8,13H41.57V39.54h-16l11.83-12S44.81,17.67,35.09,11C35.09,10.86,21,4.1,17.11,20.52Z" transform="translate(-5.28 -3.57)"/></g><g class="cls-5"><path d="M65.83,58.4h-.91V55.5l0-.44a4,4,0,0,1-.32.29l-.49.4-.44-.55,1.38-1.1h.75Z" transform="translate(-5.28 -3.57)"/><path d="M70.15,58.4h-3v-.64l1.07-1.09c.32-.32.53-.55.63-.67a1.38,1.38,0,0,0,.21-.36.92.92,0,0,0,.06-.33.49.49,0,0,0-.14-.39.56.56,0,0,0-.38-.12,1.13,1.13,0,0,0-.48.11,2.63,2.63,0,0,0-.49.33l-.5-.59a3.45,3.45,0,0,1,.53-.38,2.2,2.2,0,0,1,.45-.17,2.4,2.4,0,0,1,.56-.06,1.64,1.64,0,0,1,.71.15,1.2,1.2,0,0,1,.48.41,1.13,1.13,0,0,1,.17.6,1.47,1.47,0,0,1-.11.56,2.34,2.34,0,0,1-.32.53,7.58,7.58,0,0,1-.77.78l-.55.52v0h1.87Z" transform="translate(-5.28 -3.57)"/><path d="M73.68,56.25a2.94,2.94,0,0,1-.37,1.66,1.43,1.43,0,0,1-2.25,0,3.88,3.88,0,0,1,0-3.33,1.43,1.43,0,0,1,2.25,0A3,3,0,0,1,73.68,56.25Zm-2.1,0a3.33,3.33,0,0,0,.14,1.13.46.46,0,0,0,.46.34.48.48,0,0,0,.46-.34,3.37,3.37,0,0,0,.14-1.13,3.11,3.11,0,0,0-.15-1.14.47.47,0,0,0-.91,0A3.4,3.4,0,0,0,71.58,56.25Z" transform="translate(-5.28 -3.57)"/></g><text class="cls-6" transform="translate(64.44 54.43)">‏</text><path d="M12,54.6a2.28,2.28,0,0,1,1,.18,1.38,1.38,0,0,1,.29.22.82.82,0,0,1,.17.29,1.4,1.4,0,0,1,.08.34,2.58,2.58,0,0,1,0,.42v2.4H12.42v-2.4a.51.51,0,0,0-.58-.57,12,12,0,0,0-1.22.08l-.24,0v-.87A10.64,10.64,0,0,1,12,54.6Zm-.43,3.85H10.38V56.24h1.14Z" transform="translate(-5.28 -3.57)"/><path d="M14.31,57.23V54.66h1.14v1.77l-.63.8Z" transform="translate(-5.28 -3.57)"/><path d="M16.17,57.23V54.66h1.14v1.77l-.63.8Z" transform="translate(-5.28 -3.57)"/><path d="M19.89,58.45H18.23l-.32-3.79H19l.14,1.76a.12.12,0,0,0,.08,0,.16.16,0,0,0,.08-.06.22.22,0,0,0,.07-.12.53.53,0,0,0,0-.19l.12-1.37h1.1L20.53,56a1.83,1.83,0,0,1-.08.43,1.19,1.19,0,0,1-.15.32,1.34,1.34,0,0,1-.2.21,1.28,1.28,0,0,1-.23.15l-.22.07a1.55,1.55,0,0,1-.37,0h-.05l0,.35H20a.76.76,0,0,0,.6-.29,1.61,1.61,0,0,0,.3-.92l.15-1.71h1.1L22,56.39a3,3,0,0,1-.19.87,1.88,1.88,0,0,1-.33.6,1.47,1.47,0,0,1-.46.36,2.57,2.57,0,0,1-.55.19A3.74,3.74,0,0,1,19.89,58.45Z" transform="translate(-5.28 -3.57)"/><path d="M26,54.66l-.15,1.67a2.88,2.88,0,0,1-.17.83,2.1,2.1,0,0,1-1.82,1.29l-1.31.21v-.9l.91-.14-.8-3h1.13l.46,1.65.19.95a1.6,1.6,0,0,0,.28-.88l.15-1.72Z" transform="translate(-5.28 -3.57)"/><path d="M27.77,58.45H26.64V54.66h1.13Z" transform="translate(-5.28 -3.57)"/><path d="M31.15,56.05v3.79H30V56.05a5.52,5.52,0,0,0-.05-.71,3.79,3.79,0,0,0-.1-.51l-.05-.17H31s0,.1.06.18a4.87,4.87,0,0,1,.08.49A4.37,4.37,0,0,1,31.15,56.05Z" transform="translate(-5.28 -3.57)"/><path d="M33.07,58.45H31.94V54.66h1.13Z" transform="translate(-5.28 -3.57)"/><path d="M35.54,54.66v.82a1.28,1.28,0,0,0-.26.3,2.06,2.06,0,0,0-.16.34,1.37,1.37,0,0,0-.08.35,2.23,2.23,0,0,0,0,.32v1.66H33.87v-1.3a2,2,0,0,1,.62-1.61h-.75v-.88Z" transform="translate(-5.28 -3.57)"/><path d="M36,58.45V54.71a10.54,10.54,0,0,1,1.57-.11,2.48,2.48,0,0,1,1,.17,1.27,1.27,0,0,1,.29.21.78.78,0,0,1,.17.28,1.55,1.55,0,0,1,.08.36,2.75,2.75,0,0,1,0,.43v2.4H38v-2.4a.5.5,0,0,0-.57-.57h-.33v3Z" transform="translate(-5.28 -3.57)"/><path d="M42.41,54.66h1.91v.69L43.82,57h0l-.32,1.41H42.38L42.71,57l.44-1.46H41.27V53.91h1.14Z" transform="translate(-5.28 -3.57)"/><path d="M46.67,58.45H45l-.32-3.79h1.1l.15,1.76a.13.13,0,0,0,.08,0,.16.16,0,0,0,.08-.06.31.31,0,0,0,.07-.12.53.53,0,0,0,0-.19l.12-1.37h1.09L47.31,56a1.83,1.83,0,0,1-.08.43,2.44,2.44,0,0,1-.15.32,1,1,0,0,1-.21.21,1.23,1.23,0,0,1-.22.15l-.23.07a1.5,1.5,0,0,1-.37,0h0l0,.35h.76a.76.76,0,0,0,.61-.29,1.69,1.69,0,0,0,.3-.92l.14-1.71H49l-.16,1.73a3.33,3.33,0,0,1-.18.87,2.1,2.1,0,0,1-.33.6,1.51,1.51,0,0,1-.47.36,2.32,2.32,0,0,1-.54.19A3.74,3.74,0,0,1,46.67,58.45Z" transform="translate(-5.28 -3.57)"/><path d="M52.7,54.6a2.23,2.23,0,0,1,1,.18A1.16,1.16,0,0,1,54,55a.71.71,0,0,1,.18.29,2.09,2.09,0,0,1,.08.34c0,.12,0,.26,0,.42v2.4H53.16v-2.4a.5.5,0,0,0-.57-.57,11.79,11.79,0,0,0-1.22.08l-.25,0v-.87A10.68,10.68,0,0,1,52.7,54.6Zm-.44,3.85H51.13V56.24h1.13Z" transform="translate(-5.28 -3.57)"/><path d="M55.06,54.65a3.09,3.09,0,0,1,.59,0,1.83,1.83,0,0,1,.58.07.87.87,0,0,1,.36.18.88.88,0,0,1,.22.28,1.5,1.5,0,0,1,.11.34,2.41,2.41,0,0,1,0,.4v1.4q0,.27,0,.57c0,.2-.05.35-.07.46l0,.15H54.89v-.87h.89a1.55,1.55,0,0,0,0-.31v-1.4a.53.53,0,0,0-.06-.26.25.25,0,0,0-.22-.11l-.4,0h-.07Z" transform="translate(-5.28 -3.57)"/><path d="M59.57,58.45H57.9l-.32-3.79h1.11l.14,1.76a.15.15,0,0,0,.09,0,.21.21,0,0,0,.08-.06.33.33,0,0,0,.06-.12.53.53,0,0,0,0-.19l.11-1.37h1.1L60.21,56a1.82,1.82,0,0,1-.09.43,1.19,1.19,0,0,1-.15.32.8.8,0,0,1-.2.21,1.23,1.23,0,0,1-.22.15l-.23.07a1.5,1.5,0,0,1-.37,0H58.9l0,.35h.76a.78.78,0,0,0,.61-.29,1.61,1.61,0,0,0,.29-.92l.15-1.71h1.11l-.16,1.73a3.33,3.33,0,0,1-.18.87,2.1,2.1,0,0,1-.34.6,1.47,1.47,0,0,1-.46.36,2.32,2.32,0,0,1-.54.19A3.91,3.91,0,0,1,59.57,58.45Z" transform="translate(-5.28 -3.57)"/></svg>