<svg xmlns="http://www.w3.org/2000/svg" width="83.928" height="64.94" viewBox="0 0 83.928 64.94"><defs><style>.a{fill:#966427;}.b{fill:#88c63d;}.c{fill:#0d5736;}.d{fill:#8d6520;}.e{font-size:7px;font-family:SegoeUI-Bold, Segoe UI;font-weight:700;letter-spacing:0.021em;}.f{font-family:OpenSans-Bold, Open Sans;}</style></defs><g transform="translate(-85 -8.06)"><g transform="translate(85 8.06)"><path class="a" d="M86-1173H96v39.229H90.9v-34.891H86Z" transform="translate(-86 1180.544)"/><path class="b" d="M152.476-1181l11.245,20.275s5.54,16.5-10.491,19.143c0,.377-15.654-1.32-12.259-17.163C142.032-1162.611,152.476-1181,152.476-1181Z" transform="translate(-89.105 1181)"/><path class="c" d="M147.32-1152.929,146-1151.8l6.035,6.035v19.615h1.886v-25.65l6.224-6.412-1.7-1.509-4.526,5.658V-1165h-1.886v16.408Z" transform="translate(-89.526 1180.088)"/><path class="d" d="M17.917,40.281h0A20.756,20.756,0,0,1,0,19.724,20.784,20.784,0,0,1,14.282,0L11.027,8.028a15.208,15.208,0,0,0,6.89,26.646V40.28Zm6.6-.15h0V34.464A15.206,15.206,0,0,0,31.741,9.22l-1.27-2.845L27.413.067a20.786,20.786,0,0,1,14.08,19.657A20.761,20.761,0,0,1,24.52,40.13Z" transform="translate(42.436 6.68)"/><path class="a" d="M100.6-1160.851c.189.26,4.526-.117,4.526-.117s0-9.242,9.43-8.676c.189,0,7.921,1.132,8.11,7.733s-7.167,12.636-7.167,12.636l-14.9,15.088h28.479v-4.526H110.407l13.768-13.957s8.676-11.5-2.64-19.238C121.535-1172.1,105.126-1179.972,100.6-1160.851Z" transform="translate(-86.832 1180.582)"/></g><text class="e" transform="translate(88 71)"><tspan x="0" y="0">ועשייה</tspan><tspan y="0">חזון</tspan><tspan y="0">של</tspan><tspan y="0">שנה</tspan><tspan class="f" y="0"> </tspan><tspan class="f" y="0">120</tspan><tspan class="f" y="0">‏120</tspan></text></g></svg>