<svg xmlns="http://www.w3.org/2000/svg" width="26.271" height="28.915" viewBox="0 0 26.271 28.915"><defs><style>.a{fill:#575757;}</style></defs><g transform="translate(-22.3 0)"><g transform="translate(22.3 0)"><path class="a" d="M25.733,3.717a.728.728,0,0,0-1.026-.006A.718.718,0,0,0,24.7,4.737L26.432,6.48a.727.727,0,0,0,.516.213h0a.723.723,0,0,0,.51-.213l5.271-5.241A.723.723,0,1,0,31.709.213L30.114,1.8a4.546,4.546,0,1,0,1.091,4.482.728.728,0,1,0-1.393-.421,3.1,3.1,0,1,1-.729-3.03L26.954,4.945Z" transform="translate(-22.3 0)"/><path class="a" d="M26.847,170.6a4.547,4.547,0,1,0,4.547,4.547A4.552,4.552,0,0,0,26.847,170.6Zm0,7.642a3.095,3.095,0,1,1,3.095-3.095A3.1,3.1,0,0,1,26.847,178.242Z" transform="translate(-22.3 -160.485)"/><path class="a" d="M31.395,338.847a4.547,4.547,0,1,0-4.547,4.547A4.552,4.552,0,0,0,31.395,338.847Zm-4.547,3.1a3.095,3.095,0,1,1,3.095-3.095A3.1,3.1,0,0,1,26.847,341.948Z" transform="translate(-22.3 -314.48)"/><path class="a" d="M217.358,235H203.229a.729.729,0,0,0,0,1.458h14.128a.729.729,0,1,0,0-1.458Z" transform="translate(-191.816 -221.067)"/><path class="a" d="M217.358,71.5H203.229a.729.729,0,0,0,0,1.458h14.128a.729.729,0,1,0,0-1.458Z" transform="translate(-191.816 -67.261)"/><path class="a" d="M217.358,398.8H203.229a.729.729,0,1,0,0,1.458h14.128a.729.729,0,0,0,0-1.458Z" transform="translate(-191.816 -375.156)"/></g></g></svg>