<svg xmlns="http://www.w3.org/2000/svg" width="18" height="25.609" viewBox="0 0 18 25.609"><defs><style>.a{fill:#00c466;}</style></defs><g transform="translate(-76.092 0)"><path class="a" d="M170.592,99a4.5,4.5,0,1,0-4.5-4.5A4.505,4.505,0,0,0,170.592,99Zm0-7.5a3,3,0,1,1-3,3A3,3,0,0,1,170.592,91.5Z" transform="translate(-85.5 -85.5)"/><path class="a" d="M92.562,14.021a9,9,0,1,0-14.941,0l7.47,11.588ZM85.092,1.5a7.5,7.5,0,0,1,6.36,11.475l-6.36,9.866-6.36-9.866A7.5,7.5,0,0,1,85.092,1.5Z"/></g></svg>