<svg xmlns="http://www.w3.org/2000/svg" width="32.186" height="34.312" viewBox="0 0 32.186 34.312"><defs><style>.a{fill:#11a11a;}</style></defs><g transform="translate(-10.45 0)"><g transform="translate(10.45 0)"><path class="a" d="M46.749,164.282a.547.547,0,0,0-.547.547V175.41a.547.547,0,0,0,.547.547h2.645a.547.547,0,0,0,.547-.547V164.829a.547.547,0,0,0-.547-.547Z" transform="translate(-42.565 -147.571)"/><path class="a" d="M150.767,164.282a.547.547,0,0,0-.547.547V175.41a.547.547,0,0,0,.547.547h2.645a.547.547,0,0,0,.547-.547V164.829a.547.547,0,0,0-.547-.547Z" transform="translate(-136.002 -147.571)"/><path class="a" d="M254.8,164.282a.546.546,0,0,0-.547.547V175.41a.547.547,0,0,0,.547.547h2.645a.547.547,0,0,0,.547-.547V164.829a.547.547,0,0,0-.547-.547Z" transform="translate(-229.452 -147.571)"/><path class="a" d="M60.754,137.023V135.7a.547.547,0,0,0-.547-.547H33.756a.547.547,0,0,0-.547.547v1.323a.547.547,0,0,0,.547.547H60.207A.547.547,0,0,0,60.754,137.023Z" transform="translate(-30.894 -121.406)"/><path class="a" d="M50.706,106.023H21.829a.547.547,0,0,0-.547.547v1.323a.547.547,0,0,0,.547.547H50.706a.547.547,0,0,0,.547-.547V106.57A.547.547,0,0,0,50.706,106.023Z" transform="translate(-20.18 -95.238)"/><path class="a" d="M42.283,8.634,26.8.069a.547.547,0,0,0-.53,0l-15.54,8.6A.547.547,0,0,0,11,9.692H42.089a.547.547,0,0,0,.194-1.058ZM26.537,7.785A2.187,2.187,0,1,1,28.724,5.6,2.189,2.189,0,0,1,26.537,7.785Z" transform="translate(-10.45 0)"/><circle class="a" cx="1.094" cy="1.094" r="1.094" transform="translate(14.994 4.504)"/><path class="a" d="M33.2,286.3a.547.547,0,0,0,.547.547H60.2a.547.547,0,0,0,.547-.547v-1.323a.546.546,0,0,0-.547-.547H33.75a.547.547,0,0,0-.547.547Z" transform="translate(-30.888 -255.498)"/><path class="a" d="M50.706,313.56H21.829a.547.547,0,0,0-.547.547v1.323a.547.547,0,0,0,.547.547H50.706a.547.547,0,0,0,.547-.547v-1.323A.548.548,0,0,0,50.706,313.56Z" transform="translate(-20.18 -281.664)"/></g></g></svg>