<svg xmlns="http://www.w3.org/2000/svg" width="175.825" height="67.851" viewBox="0 0 175.825 67.851">
  <path id="path270" d="M712.744,77.336h25.8v-7.16h-19.6l11.485-11.47-2.879-6.22-5.25,5.265V42.94l-8.129-8.129V65.866l-16.243,5.265H670.22l13.857-13.857h21.03V49.623H691.25l19.584-19.584-6.682-6.22L690.773,37.2V19.046l-6.7-6.7V47.222L671.651,59.646V35.766l-8.114,8.129V66.82l-8.607,8.592V37.675L679.3,13.3H669.265L654.931,27.637V9.485H646.34V27.637L632.005,13.3H621.968L646.34,37.675V75.412l-8.607-8.592V43.895l-8.113-8.129v23.88L617.194,47.222V12.349l-6.7,6.7V37.2L597.133,23.819l-6.7,6.22,19.585,19.584H596.178v7.651h21.016L631.05,71.131H603.337l-16.243-5.265V34.812l-8.129,8.129V57.751l-5.25-5.265-2.864,6.22,11.47,11.47h-19.6v7.16h25.8S712.806,77.26,712.744,77.336Z" transform="translate(-562.723 -9.485)" fill="#fff" opacity="0.81"/>
</svg>
