<svg xmlns="http://www.w3.org/2000/svg" width="24.007" height="24.007" viewBox="0 0 24.007 24.007"><defs><style>.a{fill:#d6a348;}</style></defs><path class="a" d="M21.194,7.455H18.8V0H5.2V7.455H2.813A2.816,2.816,0,0,0,0,10.269v7.6a2.816,2.816,0,0,0,2.813,2.813H5.2v3.329H18.8V20.678h2.391a2.816,2.816,0,0,0,2.813-2.813v-7.6A2.816,2.816,0,0,0,21.194,7.455ZM7.08,1.876h9.847v5.58H7.08Zm0,20.256V15.9h9.847v6.236Zm15.051-4.267a.939.939,0,0,1-.938.938H18.8V15.9h1.454V14.02H3.751V15.9H5.2V18.8H2.813a.939.939,0,0,1-.938-.938v-7.6a.939.939,0,0,1,.938-.938h18.38a.939.939,0,0,1,.938.938ZM15.051,3.751V5.627h-6.1V3.751Z"/></svg>