<svg xmlns="http://www.w3.org/2000/svg" width="17.764" height="24.323" viewBox="0 0 17.764 24.323"><defs><style>.a{fill:#00c466;}</style></defs><g transform="translate(-60.68 0)"><g transform="translate(60.68 0)"><path class="a" d="M62.154,66.033A.748.748,0,1,0,60.7,66.4l4.888,19.288a.748.748,0,0,0,1.451-.368Z" transform="translate(-60.68 -61.93)"/><path class="a" d="M115.74,9.535q-1.2-4.413-2.391-8.825a.8.8,0,0,0-.807-.694c-4.48-.324-7.422,4.137-11.9,3.813-.354-.044-.581.141-.494.459q1.2,4.412,2.391,8.825a.886.886,0,0,0,.807.694c4.48.325,7.422-4.137,11.9-3.813C115.6,10.038,115.826,9.854,115.74,9.535Zm-3.516-8.408.66,2.435a8.086,8.086,0,0,0-2.656.551l-.66-2.435A8.086,8.086,0,0,1,112.224,1.127Zm-9.232,9.1-.75-2.766a8,8,0,0,0,2.789-.607l-.66-2.435a26.87,26.87,0,0,0,2.6-1.38l.66,2.435a26.885,26.885,0,0,1-2.6,1.38l.749,2.766A8,8,0,0,1,102.992,10.226Zm3.458,1.864-.669-2.471a26.616,26.616,0,0,0,2.577-1.369l.669,2.471A26.6,26.6,0,0,1,106.45,12.09Zm1.926-3.85-.749-2.767a24.134,24.134,0,0,1,2.6-1.36l.75,2.766A24.173,24.173,0,0,0,108.376,8.24Zm3.286,1.1-.669-2.471a8.072,8.072,0,0,1,2.64-.545L114.3,8.8A8.071,8.071,0,0,0,111.662,9.344Z" transform="translate(-97.994 0)"/></g></g></svg>