<svg xmlns="http://www.w3.org/2000/svg" width="39.336" height="33.092" viewBox="0 0 39.336 33.092"><defs><style>.a{fill:#747474;}</style></defs><g transform="translate(-3 -5.063)"><path class="a" d="M4.511,21.143a1.507,1.507,0,0,0,1.2-.59l.658-.855A16.542,16.542,0,0,0,36.454,26.09a1.513,1.513,0,0,0-2.523-1.672,13.509,13.509,0,0,1-24.612-5.5l1.3,1a1.513,1.513,0,0,0,1.846-2.4L8.873,14.757c-.752-.579-1.822-.9-2.5-.017L3.315,18.708a1.511,1.511,0,0,0,1.2,2.434Z" transform="translate(0 4.681)"/><path class="a" d="M7.4,14.545a1.516,1.516,0,0,0,2.1-.425,13.509,13.509,0,0,1,24.612,5.5l-1.3-1a1.513,1.513,0,0,0-1.846,2.4l3.587,2.761c.766.589,1.811.918,2.5.017l3.056-3.968a1.512,1.512,0,1,0-2.4-1.844l-.658.855A16.545,16.545,0,0,0,6.973,12.447a1.515,1.515,0,0,0,.425,2.1Z" transform="translate(1.909)"/></g></svg>