<svg xmlns="http://www.w3.org/2000/svg" width="26.76" height="34.613" viewBox="0 0 26.76 34.613"><defs><style>.a{fill:#08954e;}</style></defs><g transform="translate(0)"><g transform="translate(4.11 28.55)"><path class="a" d="M180.508,422.307h7.1v2.028h-7.1Z" transform="translate(-176.452 -422.307)"/><path class="a" d="M120.508,422.307h2.028v2.028h-2.028Z" transform="translate(-120.508 -422.307)"/></g><path class="a" d="M88.268,0H61.508V34.613H80.475l7.792-8.461V0m-2.06,2.044v22.7H78.982v7.859l-15.41,0V2.044ZM84.914,26.775l-3.869,4.209V26.775Z" transform="translate(-61.508)"/></g><g transform="translate(4.2 5.733)"><path class="a" d="M277.932,91.218a6.418,6.418,0,0,0-6.411-6.411h-1.014v7.609h7.387S277.932,91.281,277.932,91.218Zm-5.4-.83V86.953a4.4,4.4,0,0,1,3.29,3.434Z" transform="translate(-260.366 -84.807)"/><path class="a" d="M132.626,149.425a7.05,7.05,0,0,0,2.079-5.02v-1.014h-6.084v-6.084h-1.014a7.1,7.1,0,1,0,5.019,12.118Zm-10.089-5.02a5.074,5.074,0,0,1,4.056-4.97v5.984h5.984a5.071,5.071,0,0,1-10.04-1.014Z" transform="translate(-120.508 -133.758)"/></g></svg>