<svg id="right-arrow_2_" data-name="right-arrow(2)" xmlns="http://www.w3.org/2000/svg" width="8.117" height="6.753" viewBox="0 0 8.117 6.753">
  <g id="Group_186" data-name="Group 186">
    <path id="Path_452" data-name="Path 452" d="M.13,44.407l2.931-2.931a.446.446,0,0,1,.628,0l.266.266a.441.441,0,0,1,.13.314.45.45,0,0,1-.13.318l-1.71,1.714H7.678a.434.434,0,0,1,.438.437V44.9a.45.45,0,0,1-.438.456H2.226L3.955,47.08a.44.44,0,0,1,0,.624l-.266.265a.446.446,0,0,1-.628,0L.13,45.037a.448.448,0,0,1,0-.631Z" transform="translate(0 -41.346)"/>
  </g>
</svg>
