<svg xmlns="http://www.w3.org/2000/svg" width="24.007" height="24.007" viewBox="0 0 24.007 24.007"><defs><style>.a{fill:#d6a348;}</style></defs><path class="a" d="M19.706,0H2.813A2.816,2.816,0,0,0,0,2.813v18.38a2.816,2.816,0,0,0,2.813,2.813h18.38a2.816,2.816,0,0,0,2.813-2.813V4.3ZM7.361,1.876h5.58V5.439h1.876V1.876h1.876v4.5a.939.939,0,0,1-.938.938H8.3a.939.939,0,0,1-.938-.938ZM18.568,22.131H5.486V13.879a.939.939,0,0,1,.938-.938H17.63a.939.939,0,0,1,.938.938Zm3.564-.938a.939.939,0,0,1-.938.938h-.75V13.879a2.816,2.816,0,0,0-2.813-2.813H6.424A2.816,2.816,0,0,0,3.61,13.879v8.252h-.8a.939.939,0,0,1-.938-.938V2.813a.939.939,0,0,1,.938-.938H5.486v4.5A2.816,2.816,0,0,0,8.3,9.19h7.455a2.816,2.816,0,0,0,2.813-2.813v-4.5h.362l3.2,3.2Z"/></svg>