<svg xmlns="http://www.w3.org/2000/svg" width="8.596" height="23.508" viewBox="0 0 8.596 23.508"><defs><style>.a{fill:#37c56b;}</style></defs><path class="a" d="M302.712,43.145a21.4,21.4,0,0,1,.481,4.954,6.144,6.144,0,0,1-3.778,5.772l-.54-20.2C298.971,33.854,302.653,42.867,302.712,43.145Zm-7.5,7.722a6.556,6.556,0,0,1-.608-2.767c-.128-5.149,1.8-9.693,3.491-13.075.094-.188.677-1.17.774-1.357l-.487,20.2A6.531,6.531,0,0,1,295.217,50.866Z" transform="translate(-294.603 -33.667)"/><path class="a" d="M124.485,447.682a3.814,3.814,0,0,0,.732,1.718,4.212,4.212,0,0,0,3.252,1.523h.019a.514.514,0,0,0,0-1.028h0a3.162,3.162,0,0,1-2.448-1.121,2.763,2.763,0,0,1-.509-1.13C125.541,447.622,124.444,447.587,124.485,447.682Z" transform="translate(-120.687 -427.415)"/></svg>