<svg xmlns="http://www.w3.org/2000/svg" width="23.599" height="18.593" viewBox="0 0 23.599 18.593"><defs><style>.a{fill:#37c56b;}</style></defs><path class="a" d="M5.813,49.739A4.294,4.294,0,0,1,7.981,46a4.509,4.509,0,0,1,1.887-5.2c-.01-.129-.016-.257-.016-.385a4.8,4.8,0,0,1,.523-2.185,4,4,0,0,0-.443-.025,3.893,3.893,0,0,0-3.889,3.889q0,.116.007.233a3.639,3.639,0,0,0-1.488,4.059,3.485,3.485,0,0,0,1.821,6.456h.742A4.3,4.3,0,0,1,5.813,49.739Z" transform="translate(-2.9 -36.734)"/><path class="a" d="M7.462,49.739A4.294,4.294,0,0,0,5.294,46a4.474,4.474,0,0,0,.219-1.391,4.484,4.484,0,0,0-2.106-3.813c.01-.129.016-.257.016-.385A4.8,4.8,0,0,0,2.9,38.223a4,4,0,0,1,.443-.025,3.893,3.893,0,0,1,3.889,3.889q0,.116-.007.233a3.639,3.639,0,0,1,1.488,4.059,3.485,3.485,0,0,1-1.821,6.456H6.149A4.3,4.3,0,0,0,7.462,49.739Z" transform="translate(13.224 -36.734)"/><path class="a" d="M115.556,18.809a5.311,5.311,0,0,1,1.157.007V16.4h3.98a3.155,3.155,0,0,0,1.191-6.076l-.566-.231.261-.552a3.348,3.348,0,0,0-1.512-4.413l-.377-.192.069-.418a3.718,3.718,0,0,0,.05-.6,3.674,3.674,0,0,0-7.348,0,3.719,3.719,0,0,0,.05.6l.069.418-.377.192a3.349,3.349,0,0,0-1.512,4.413l.261.552-.566.231a3.155,3.155,0,0,0,1.191,6.076h3.98Zm-2.722-7.762.818-.818,1.9,1.9v-2.2l-2.084-2.084.818-.818L115.556,8.3V6.217h1.157V8.276l1.243-1.243.818.818-2.062,2.062v2.2l1.882-1.882.818.818-2.7,2.7V16.4h-1.157V13.769Z" transform="translate(-104.351 -0.242)"/><rect class="a" width="1.329" height="1.163" transform="translate(15.462 17.43)"/><rect class="a" width="1.329" height="1.163" transform="translate(6.826 17.43)"/></svg>