<svg xmlns="http://www.w3.org/2000/svg" width="17.254" height="17.255" viewBox="0 0 17.254 17.255"><defs><style>.a{fill:#37c56b;}</style></defs><path class="a" d="M17.072,6.464c-2.529,2.569-4.737,2.813-6.132,2.8q-.415.6-.884,1.175c.253.024.546.041.871.041a10.2,10.2,0,0,0,4.421-1.012.674.674,0,1,1,.585,1.215,11.134,11.134,0,0,1-6.943.964q-.553.579-1.162,1.132a9.438,9.438,0,0,0,5.054.137.674.674,0,1,1,.26,1.323,10.408,10.408,0,0,1-6.456-.49c-.355.283-.707.548-1.051.794a8.909,8.909,0,0,0,3.57,1.371A.674.674,0,1,1,9,17.246a10.039,10.039,0,0,1-4.558-1.9,22.3,22.3,0,0,1-3.52,1.86.674.674,0,0,1-.49-1.256,23.639,23.639,0,0,0,5.4-3.245A16.435,16.435,0,0,1,3.466,7.86a.674.674,0,0,1,1.3-.352,15.413,15.413,0,0,0,2.1,4.327q.595-.533,1.128-1.088a15.3,15.3,0,0,1-2.543-5.2.674.674,0,0,1,1.31-.317,14.274,14.274,0,0,0,2.149,4.49q.47-.564.88-1.149a11.949,11.949,0,0,1-2.3-5.413.674.674,0,0,1,1.342-.124,10.606,10.606,0,0,0,1.745,4.3,15.415,15.415,0,0,0,.737-1.448A10.85,10.85,0,0,1,9.778,1.03.674.674,0,0,1,11.126.991a9.557,9.557,0,0,0,.82,3.209,15.111,15.111,0,0,0,.63-3.564A.674.674,0,0,1,13.287,0a.688.688,0,0,1,.635.711,14.667,14.667,0,0,1-2.111,7.166A7.255,7.255,0,0,0,16.1,5.533a.674.674,0,1,1,.974.932ZM15.246,4.921a7.569,7.569,0,0,0,1.74-2.845.674.674,0,0,0-1.272-.445,6.233,6.233,0,0,1-1.428,2.344.674.674,0,1,0,.961.946ZM3.234,13.21a.674.674,0,0,1-.581-.332,11.318,11.318,0,0,1-.731-1.47A.674.674,0,0,1,3.17,10.9a9.963,9.963,0,0,0,.644,1.294.677.677,0,0,1-.58,1.016Z" transform="translate(-0.005 0)"/></svg>