<svg xmlns="http://www.w3.org/2000/svg" width="20.984" height="21.364" viewBox="0 0 20.984 21.364"><defs><style>.a{fill:#37c56b;}</style></defs><path class="a" d="M10.958.17c.579.243,3.049,1.436,3.049,4.016a11.531,11.531,0,0,1-2.622,6.56c-.069-.028-.046.36-.046-4.538a.382.382,0,1,0-.762,0v4.215A15.551,15.551,0,0,0,9.029,8.36,9.339,9.339,0,0,1,7.908,4.186c0-2.572,2.47-3.77,3.049-4.016Zm.381,11.7a.382.382,0,1,1-.381-.4A.393.393,0,0,1,11.339,11.871Zm-8.21.7C.822,11.766.51,8.915.46,8.255.841,7.746,2.686,5.622,5,6.419c2.093.724,3.873,2.706,5.07,4.68-.05.049.324.15-4.079-1.363A.378.378,0,0,0,5.524,10a.411.411,0,0,0,.231.505l3.777,1.3a14.239,14.239,0,0,0-2.337.934,7.959,7.959,0,0,1-4.067-.166Zm6.038,7.414C7.744,22.072,5.084,21.5,4.478,21.34c-.335-.562-1.67-3.074-.244-5.153a10.482,10.482,0,0,1,5.76-3.669c.034.057.21-.235-2.481,3.7a.42.42,0,0,0,.106.535.366.366,0,0,0,.511-.066l2.337-3.414a16.6,16.6,0,0,0,.111,2.633,9.18,9.18,0,0,1-1.41,4.085Zm8.515-3.8c1.426,2.079.091,4.591-.244,5.153-.606.162-3.267.732-4.688-1.351a11.783,11.783,0,0,1-1.525-6.945c.065,0-.156-.311,2.55,3.64a.377.377,0,0,0,.357.21.384.384,0,0,0,.331-.253.423.423,0,0,0-.075-.426L12.063,12.8a14.385,14.385,0,0,0,2.424.716A8.546,8.546,0,0,1,17.681,16.187ZM12.1,11.948c0-.069-.286.057,4.056-1.444A.411.411,0,0,0,16.387,10a.378.378,0,0,0-.467-.263l-3.777,1.286a16.4,16.4,0,0,0,1.372-2.212A8.473,8.473,0,0,1,16.9,6.4c2.287-.809,4.143,1.327,4.54,1.836-.038.663-.343,3.523-2.668,4.32-2.077.74-4.616.239-6.674-.611Z" transform="translate(-0.46 -0.17)"/></svg>