<svg xmlns="http://www.w3.org/2000/svg" width="19.195" height="22.142" viewBox="0 0 19.195 22.142"><defs><style>.a{fill:#37c56b;}</style></defs><g transform="translate(8.949 15.577)"><g transform="translate(0)"><path class="a" d="M241.65,360.193a6,6,0,0,1-.649.412v6.153h1.3v-6.153A6.013,6.013,0,0,1,241.65,360.193Z" transform="translate(-241.001 -360.193)"/></g></g><g transform="translate(0)"><path class="a" d="M49.648,5.166a6.038,6.038,0,0,0-11.95,0,6.038,6.038,0,1,0,5.326,10.823V13.349l-2.91-1.53.6-1.148,2.306,1.212V6.454h1.3V9.007l2.306-1.212.6,1.148-2.91,1.53v5.516A6.038,6.038,0,1,0,49.648,5.166Z" transform="translate(-34.076)"/></g></svg>