<svg xmlns="http://www.w3.org/2000/svg" width="19.208" height="20.059" viewBox="0 0 19.208 20.059"><defs><style>.a{fill:#37c56b;}</style></defs><path class="a" d="M42.349,6.551a1.6,1.6,0,0,1-.74-1.38A3.216,3.216,0,0,0,38.889,1.5a3.028,3.028,0,0,1-.93-.343,2.235,2.235,0,0,0-1.7-.236.7.7,0,0,1-.765-.179,2.727,2.727,0,0,0-4.4.931,1.649,1.649,0,0,1-.971,1,.834.834,0,0,0-.294.172c-.234.251-.458.189-.741.068A2.778,2.778,0,0,0,25.2,5.4a1.8,1.8,0,0,1-.281.836A2.8,2.8,0,0,0,24.649,8.9a1.684,1.684,0,0,0,.615,1.953,1.725,1.725,0,0,0,2.161-.256,2.74,2.74,0,0,0,.544-.11,1.39,1.39,0,0,1,1.015-.1,1.643,1.643,0,0,0,.152.1c.014.011.027.022.041.035l.005-.008a1.638,1.638,0,0,0,.318.129,10.066,10.066,0,0,0,3.69,5.336,10.11,10.11,0,0,1-1.105,3.845c-.724.442,4.138.126,4.022,0,0,0-.478-2.98-.443-3.269.1-.858-.1-1.994,0-2.869a5.184,5.184,0,0,0,3.272-1.563,1.724,1.724,0,0,0,.967-.293l.11-.034a2.363,2.363,0,0,0,2.211.274,1.859,1.859,0,0,0,1.22-1.59,1.708,1.708,0,0,0-.007-.2A3.292,3.292,0,0,0,42.349,6.551ZM31.432,10.44l.02-.008a.581.581,0,0,1,.472.1c.165.128.32.267.472.409,0,.012,0,.023.007.036l.7,2.329c.055.391.091.78.11,1.167A4.851,4.851,0,0,1,31.432,10.44Zm4.509,2.244c.054-.13.109-.26.165-.39h.057c0-.045,0-.09,0-.135a10.328,10.328,0,0,1,.515-1.012,4.865,4.865,0,0,0,.763.562A6.086,6.086,0,0,1,35.941,12.684Z" transform="translate(-24.431 0.002)"/></svg>