<svg xmlns="http://www.w3.org/2000/svg" width="34" height="34" viewBox="0 0 34 34"><defs><style>.a{fill:#11a11a;}</style></defs><g transform="translate(12.75 28.333)"><path class="a" d="M198.375,426.667h-4.25A2.128,2.128,0,0,0,192,428.792v2.833a.709.709,0,0,0,.708.708h7.083a.709.709,0,0,0,.708-.708v-2.833A2.128,2.128,0,0,0,198.375,426.667Z" transform="translate(-192 -426.667)"/></g><g transform="translate(2.833 28.333)"><path class="a" d="M49.042,426.667h-4.25a2.128,2.128,0,0,0-2.125,2.125v2.833a.709.709,0,0,0,.708.708h7.083a.709.709,0,0,0,.708-.708v-2.833A2.128,2.128,0,0,0,49.042,426.667Z" transform="translate(-42.667 -426.667)"/></g><g transform="translate(22.667 28.333)"><path class="a" d="M347.708,426.667h-4.25a2.128,2.128,0,0,0-2.125,2.125v2.833a.709.709,0,0,0,.708.708h7.083a.709.709,0,0,0,.708-.708v-2.833A2.128,2.128,0,0,0,347.708,426.667Z" transform="translate(-341.333 -426.667)"/></g><g transform="translate(12.75 21.25)"><path class="a" d="M198.375,320h-4.25A2.128,2.128,0,0,0,192,322.125v2.833a.709.709,0,0,0,.708.708h7.083a.709.709,0,0,0,.708-.708v-2.833A2.128,2.128,0,0,0,198.375,320Z" transform="translate(-192 -320)"/></g><g transform="translate(2.833 21.25)"><path class="a" d="M49.042,320h-4.25a2.128,2.128,0,0,0-2.125,2.125v2.833a.709.709,0,0,0,.708.708h7.083a.709.709,0,0,0,.708-.708v-2.833A2.128,2.128,0,0,0,49.042,320Z" transform="translate(-42.667 -320)"/></g><g transform="translate(1.417)"><path class="a" d="M51.791,0H22.041a.709.709,0,0,0-.708.708V20.23a.709.709,0,0,0,1.183.527,3.523,3.523,0,0,1,2.359-.924h2.346a.191.191,0,0,0,.028,0,.709.709,0,0,0,.708-.708.7.7,0,0,0-.106-.374,28.5,28.5,0,0,0-2-4.994c2.543-1.652,5.382-7.1,6.4-9.186a9.663,9.663,0,0,0,4.665,1.1,9.674,9.674,0,0,0,4.667-1.1c1.02,2.082,3.859,7.534,6.4,9.186a28.579,28.579,0,0,0-2.054,5.178.707.707,0,0,0,.681.9h2.346a3.523,3.523,0,0,1,2.359.924A.709.709,0,0,0,52.5,20.23V.708A.709.709,0,0,0,51.791,0Z" transform="translate(-21.333)"/></g><g transform="translate(22.667 21.25)"><path class="a" d="M347.708,320h-4.25a2.128,2.128,0,0,0-2.125,2.125v2.833a.709.709,0,0,0,.708.708h7.083a.709.709,0,0,0,.708-.708v-2.833A2.128,2.128,0,0,0,347.708,320Z" transform="translate(-341.333 -320)"/></g><g transform="translate(6.375 17)"><path class="a" d="M116.542,256H96.708a.708.708,0,1,0,0,1.417h19.833a.708.708,0,1,0,0-1.417Z" transform="translate(-96 -256)"/></g><g transform="translate(31.167)"><path class="a" d="M471.458,0h-1.417a.708.708,0,1,0,0,1.417h1.417a.708.708,0,1,0,0-1.417Z" transform="translate(-469.333)"/></g><path class="a" d="M2.125,0H.708a.708.708,0,0,0,0,1.417H2.125A.708.708,0,0,0,2.125,0Z"/></svg>