<svg xmlns="http://www.w3.org/2000/svg" width="40.001" height="33.365" viewBox="0 0 40.001 33.365"><defs><style>.a{fill:#1ea526;}</style></defs><g transform="translate(0 -42.468)"><path class="a" d="M39.219,49.178,20.39,42.535a1.171,1.171,0,0,0-.78,0L.782,49.178a1.172,1.172,0,0,0,0,2.209l18.829,6.694a1.171,1.171,0,0,0,.785,0l18.829-6.694a1.172,1.172,0,0,0,0-2.209Z" transform="translate(0 0)"/><path class="a" d="M434.374,207.956V197.734l-2.344.833v9.389a2.353,2.353,0,0,0,0,4.082V217.8a1.172,1.172,0,0,0,2.344,0v-5.759a2.353,2.353,0,0,0,0-4.082Z" transform="translate(-397.187 -143.136)"/><path class="a" d="M117.206,226.378a3.507,3.507,0,0,1-1.178-.2l-10.585-3.763v5.157c0,1.262,1.316,2.329,3.912,3.171a27.626,27.626,0,0,0,15.7,0c2.6-.843,3.912-1.909,3.912-3.171v-5.157l-10.585,3.763A3.508,3.508,0,0,1,117.206,226.378Z" transform="translate(-97.206 -165.885)"/></g></svg>