<svg xmlns="http://www.w3.org/2000/svg" width="29.667" height="29.667" viewBox="0 0 29.667 29.667"><defs><style>.a{fill:#08954e;}</style></defs><g transform="translate(-3 -3)"><path class="a" d="M41.046,7.467a4.637,4.637,0,0,0,0,1.3l1.135.466a4.064,4.064,0,0,0,.364.882l-.472,1.13a5.138,5.138,0,0,0,.918.918l1.13-.472A4.066,4.066,0,0,0,45,12.05l.466,1.135a4.637,4.637,0,0,0,1.3,0l.466-1.135a4.061,4.061,0,0,0,.882-.364l1.13.472a5.137,5.137,0,0,0,.918-.918l-.472-1.13a4.063,4.063,0,0,0,.364-.882l1.135-.466a4.637,4.637,0,0,0,0-1.3L50.049,7a4.061,4.061,0,0,0-.364-.882l.472-1.13a5.136,5.136,0,0,0-.918-.918l-1.13.472a4.063,4.063,0,0,0-.882-.364l-.466-1.135a4.637,4.637,0,0,0-1.3,0L45,4.181a4.063,4.063,0,0,0-.882.364l-1.13-.472a5.137,5.137,0,0,0-.918.918l.472,1.13A4.063,4.063,0,0,0,42.18,7Zm5.069-1.4a2.046,2.046,0,1,1-2.046,2.046A2.046,2.046,0,0,1,46.115,6.069Z" transform="translate(-18.563)"/><path class="a" d="M11.752,23.049l-.375,1.6a8.114,8.114,0,0,0-1.534.41l-1.121-1.2a9.7,9.7,0,0,0-1.672.969L7.524,26.4A8.231,8.231,0,0,0,6.4,27.523l-1.559-.474a9.693,9.693,0,0,0-.969,1.672l1.2,1.121a8.113,8.113,0,0,0-.411,1.535l-1.6.375c-.031.318-.049.64-.049.967s.017.648.049.967l1.6.375a8.114,8.114,0,0,0,.41,1.534l-1.2,1.121a9.7,9.7,0,0,0,.969,1.672L6.4,37.913a8.235,8.235,0,0,0,1.128,1.128L7.049,40.6a9.694,9.694,0,0,0,1.672.969l1.121-1.2a8.113,8.113,0,0,0,1.535.411l.375,1.6c.318.031.64.049.967.049s.649-.017.967-.049l.375-1.6a8.114,8.114,0,0,0,1.534-.41l1.121,1.2a9.693,9.693,0,0,0,1.672-.969l-.474-1.559a8.235,8.235,0,0,0,1.128-1.128l1.559.474a9.7,9.7,0,0,0,.969-1.672l-1.2-1.121a8.115,8.115,0,0,0,.411-1.535l1.6-.375c.031-.318.049-.64.049-.967s-.017-.649-.049-.967l-1.6-.375a8.114,8.114,0,0,0-.41-1.534l1.2-1.121a9.692,9.692,0,0,0-.969-1.672l-1.559.474A8.235,8.235,0,0,0,17.913,26.4l.474-1.559a9.692,9.692,0,0,0-1.672-.969l-1.121,1.2a8.113,8.113,0,0,0-1.535-.411l-.375-1.6c-.318-.031-.64-.049-.967-.049s-.649.017-.967.049Zm6.593,9.67a5.626,5.626,0,1,1-5.626-5.626A5.626,5.626,0,0,1,18.345,32.718Z" transform="translate(0 -9.77)"/><path class="a" d="M0,0H1.535V1.023H0Z" transform="matrix(0.832, -0.555, 0.555, 0.832, 20.004, 5.191)"/><path class="a" d="M0,0H1.534V1.023H0Z" transform="matrix(0.832, -0.555, 0.555, 0.832, 17.878, 6.613)"/><path class="a" d="M0,0H1.534V1.023H0Z" transform="matrix(0.832, -0.555, 0.555, 0.832, 15.751, 8.032)"/><path class="a" d="M0,0H1.534V1.023H0Z" transform="matrix(0.832, -0.555, 0.555, 0.832, 11.496, 10.871)"/><path class="a" d="M0,0H1.534V1.023H0Z" transform="matrix(0.832, -0.555, 0.555, 0.832, 9.368, 12.29)"/><path class="a" d="M0,0H1.534V1.023H0Z" transform="matrix(0.832, -0.555, 0.555, 0.832, 13.623, 9.451)"/><path class="a" d="M0,0H1.534V1.023H0Z" transform="matrix(0.515, -0.857, 0.857, 0.515, 25.142, 21.896)"/><path class="a" d="M0,0H1.534V1.023H0Z" transform="matrix(0.515, -0.857, 0.857, 0.515, 26.459, 19.703)"/><path class="a" d="M0,0H1.534V1.023H0Z" transform="matrix(0.515, -0.857, 0.857, 0.515, 22.508, 26.283)"/><path class="a" d="M0,0H1.535V1.023H0Z" transform="matrix(0.515, -0.857, 0.857, 0.515, 23.824, 24.09)"/><path class="a" d="M0,0H1.534V1.023H0Z" transform="matrix(0.515, -0.857, 0.857, 0.515, 29.093, 15.316)"/><path class="a" d="M0,0H1.534V1.023H0Z" transform="matrix(0.515, -0.857, 0.857, 0.515, 27.776, 17.51)"/></g></svg>