<svg xmlns="http://www.w3.org/2000/svg" width="40.828" height="27.311" viewBox="0 0 40.828 27.311"><defs><style>.a{fill:#676767;}</style></defs><g transform="translate(0 0)"><g transform="translate(0 0)"><path class="a" d="M40.816,93.651a.711.711,0,0,0-.128-.294c-.092-.1-6.891-9.229-11.211-16.461h0a.71.71,0,0,0-.71-.341,64.691,64.691,0,0,1-15.289-.448h-.085a.71.71,0,0,0-.647.341c-.078.135-8.056,13.364-12.5,17.179A.71.71,0,0,0,.7,94.877H2.423v5.463a.71.71,0,0,0,.639.71l23.75,2.366h.071a.71.71,0,0,0,.71-.654l11.232-3.147a.71.71,0,0,0,.519-.71V94.643l.9-.163A.711.711,0,0,0,40.816,93.651ZM14.557,85.194c1.059,4.817,2.629,10.657,4.483,13.5l-4.5-.412Zm.824-2.927.014.007c2.43,4.5,6.252,10.863,10.145,14.586a.71.71,0,0,0,.583.192v2.33l-5.058-.5C19.068,97.769,16.816,89.414,15.381,82.267ZM3.169,93.477l.007.021h-.71c3.552-3.78,8.291-11.09,10.408-14.493-.71,3.9-3.034,15.047-6.231,18.472l-2.785-.27V94.188A.71.71,0,0,0,3.169,93.477Zm9.953-8.7V98.138l-4.781-.49C10.429,94.728,12.056,89.222,13.122,84.782Zm13.044,17.136L3.886,99.729V98.635l2.991.291,3.552.348,6.039.59,4.348.426,5.35.526v1.1Zm11.751-3.5-10.344,2.87V96.8l10.358-1.9ZM26.279,95.573C21.306,90.643,16.333,81.066,14.635,77.7a66.184,66.184,0,0,0,13.875.291c3.552,5.868,8.525,12.788,10.358,15.275Z" transform="translate(0 -76.106)"/></g></g></svg>