<svg xmlns="http://www.w3.org/2000/svg" width="38.29" height="38.012" viewBox="0 0 38.29 38.012"><defs><style>.a{fill:#747474;}</style></defs><g transform="translate(0 -1.688)"><g transform="translate(0 1.688)"><g transform="translate(0 0)"><path class="a" d="M254.883,423.2c-.316.079-.638.149-.957.207a1.539,1.539,0,1,0,.561,3.027c.381-.071.764-.154,1.14-.247a1.539,1.539,0,0,0-.744-2.987Z" transform="translate(-231.87 -388.465)"/><path class="a" d="M412.906,139.242a1.539,1.539,0,0,0,2.923-.968c-.122-.368-.257-.737-.4-1.1a1.539,1.539,0,1,0-2.858,1.143C412.691,138.623,412.8,138.933,412.906,139.242Z" transform="translate(-378.51 -125.138)"/><path class="a" d="M322.471,394.167c-.272.179-.552.353-.834.515a1.539,1.539,0,1,0,1.538,2.667c.336-.194.669-.4.993-.613a1.539,1.539,0,0,0-1.7-2.569Z" transform="translate(-294.456 -361.628)"/><path class="a" d="M430.712,208.79a1.539,1.539,0,1,0-3.076.121c.013.325.016.654.009.979a1.539,1.539,0,1,0,3.078.068C430.73,209.57,430.727,209.178,430.712,208.79Z" transform="translate(-392.436 -190.387)"/><path class="a" d="M379.89,344.377a1.539,1.539,0,0,0-2.155.308c-.2.26-.4.518-.612.765a1.54,1.54,0,0,0,.174,2.17c.037.031.074.06.113.087a1.539,1.539,0,0,0,2.057-.261c.252-.3.5-.6.73-.914A1.54,1.54,0,0,0,379.89,344.377Z" transform="translate(-345.746 -315.887)"/><path class="a" d="M416.1,279.423a1.539,1.539,0,0,0-1.929,1.008c-.1.31-.205.621-.321.926a1.539,1.539,0,0,0,2.876,1.1c.138-.363.266-.733.382-1.1A1.54,1.54,0,0,0,416.1,279.423Z" transform="translate(-379.696 -256.497)"/><path class="a" d="M16.3,36.646a15.894,15.894,0,0,1-3.948-1.255c-.015-.008-.028-.017-.044-.024-.295-.139-.589-.288-.875-.443l0,0a16.42,16.42,0,0,1-1.531-.957,16.062,16.062,0,0,1,.067-26.31l.055-.039A16.09,16.09,0,0,1,28.05,7.471l-1.2,1.738c-.334.484-.129.836.457.783l5.224-.468A.861.861,0,0,0,33.307,8.4L31.9,3.345c-.157-.567-.559-.634-.894-.151L29.805,4.936a19.01,19.01,0,0,0-13.93-2.962q-.739.128-1.458.311l-.01,0-.055.016A18.98,18.98,0,0,0,3.828,9.356c-.022.026-.045.052-.066.08-.087.118-.174.238-.259.358-.139.2-.276.4-.406.6-.016.024-.029.049-.043.074A18.977,18.977,0,0,0,.02,21.664c0,.013,0,.026,0,.039.017.386.048.778.09,1.163,0,.025.008.048.012.073.043.388.1.776.164,1.164a19,19,0,0,0,5.357,10.3l.02.02.007.006a19.4,19.4,0,0,0,2.452,2.049,18.979,18.979,0,0,0,7.632,3.194,1.539,1.539,0,0,0,.543-3.03Z" transform="translate(0 -1.688)"/><path class="a" d="M207.233,83.2a1.246,1.246,0,0,0-1.246,1.245V96.851l11.348,5.866a1.245,1.245,0,0,0,1.144-2.212l-10-5.171V84.443A1.245,1.245,0,0,0,207.233,83.2Z" transform="translate(-189.032 -76.489)"/></g></g></g></svg>