<svg xmlns="http://www.w3.org/2000/svg" xmlns:xlink="http://www.w3.org/1999/xlink" width="31.883" height="40.875" viewBox="0 0 31.883 40.875">
  <defs>
    <linearGradient id="linear-gradient" x1="0.5" x2="0.5" y2="1" gradientUnits="objectBoundingBox">
      <stop offset="0" stop-color="#08954e" stop-opacity="0.161"/>
      <stop offset="1" stop-color="#08954e"/>
    </linearGradient>
  </defs>
  <path id="path270" d="M572.514,50.36h1.8V39.817L577.83,36.3h3.678l1.227-1.225h-4.007l3.025-3.025h5.886l1.473-1.473h-5.885l2.208-2.208h3.351V27.063H586.74l2.616-2.616V22.566l-2.943,2.943V22l-1.391,1.389v3.27L582.9,28.78V25.756l-1.472,1.47v3.19L578.4,33.441v-3.19l-1.473,1.473v3.27l-2.779,2.779c.082-.079,0-6.457,0-6.457l2.943-2.945h2.945V27.144h-2.045l6.049-6.049h4.416V19.87H585.1l1.965-1.963-.493-1.064-.9.9V15.21l-1.391-1.391v5.314l-6.7,6.7V22.484l-1.228,1.228v3.433l-2.29,2.289V23.14l1.8-1.8H580.2l1.307-1.307h-4.742l2.371-2.371h3.6V16.353h-2.371L583.716,13l-1.143-1.064-2.289,2.289V11.121l-1.146-1.146v5.967l-2.126,2.126V13.982l-1.388,1.391V19.3l-1.473,1.47V14.309l4.17-4.17H576.6l-2.453,2.453V9.485h-1.47v3.106l-2.453-2.453h-1.718l4.17,4.17v6.457l-1.473-1.47V15.373l-1.388-1.391v4.086l-2.126-2.126V9.975l-1.146,1.146v3.106l-2.287-2.289L563.114,13l3.351,3.351H564.1v1.309h3.6l2.371,2.371h-4.742l1.307,1.307h4.334l1.8,1.8v6.294l-2.29-2.289V23.712l-1.228-1.228v3.354l-6.7-6.7V13.819l-1.391,1.391v2.534l-.9-.9-.49,1.064,1.963,1.963h-3.354V21.1h4.415l6.049,6.049h-2.045V28.37h2.945l2.943,2.945s-.084,6.378,0,6.457L569.9,34.993v-3.27l-1.473-1.473v3.19L565.4,30.416v-3.19l-1.473-1.47V28.78l-2.124-2.126v-3.27L560.416,22v3.512l-2.943-2.943v1.881l2.616,2.616h-2.044V28.37H561.4l2.208,2.208h-5.888l1.473,1.473h5.888l3.025,3.025h-4l1.225,1.225H569l3.515,3.517V50.36Z" transform="translate(-557.473 -9.485)" fill="url(#linear-gradient)"/>
</svg>
