<svg xmlns="http://www.w3.org/2000/svg" width="57.517" height="65.82" viewBox="0 0 57.517 65.82">
  <path id="XMLID_45_" d="M59.863,6.595A1.439,1.439,0,0,1,61.3,5.156h.343a1.439,1.439,0,1,1,0,2.877H61.3A1.439,1.439,0,0,1,59.863,6.595ZM61.849,40.04a1.439,1.439,0,0,0,1.439,1.439h.343a1.439,1.439,0,0,0,0-2.877h-.343A1.439,1.439,0,0,0,61.849,40.04Zm1.61-6.595A6.6,6.6,0,0,1,64.9,46.477v4.369a1.439,1.439,0,0,1-2.877,0V46.477a6.6,6.6,0,0,1,1.439-13.032Zm0,2.877a3.717,3.717,0,1,0,3.717,3.717A3.722,3.722,0,0,0,63.459,36.322ZM40.287,20.9a6.6,6.6,0,1,1,8.034,6.437V31.7a1.439,1.439,0,1,1-2.877,0V27.336A6.607,6.607,0,0,1,40.287,20.9Zm2.877,0a3.718,3.718,0,1,0,3.718-3.717A3.722,3.722,0,0,0,43.165,20.9Zm11.714-14.3a6.6,6.6,0,1,1,8.034,6.437V17.4a1.439,1.439,0,1,1-2.877,0V13.032A6.607,6.607,0,0,1,54.878,6.595Zm2.877,0a3.718,3.718,0,1,0,3.717-3.717A3.722,3.722,0,0,0,57.756,6.595ZM79.21,24.869,76.8,24,74.817,10.409a5.148,5.148,0,0,0-2.524-3.774,1.439,1.439,0,0,0-1.455,2.483,2.236,2.236,0,0,1,1.131,1.707l2.109,14.441a1.439,1.439,0,0,0,.934,1.145l3.218,1.165c2.206.8,2.423,1.349,2.366,1.74L77.135,53.021a2.472,2.472,0,0,1-2.183,2.1L53.13,59.883a.616.616,0,0,1-.523-.11,3.242,3.242,0,0,1-1.051-2.021l-.116-.7a1.439,1.439,0,0,0-1.909-1.116L30.25,62.918c-.274.1-.62-.163-.72-.246a1.768,1.768,0,0,1-.671-1.464l6.685-40.039a2.923,2.923,0,0,1,1.211-2.107,1.439,1.439,0,0,0-1.067-2.672A5.52,5.52,0,0,0,32.706,20.7L26.021,60.734a4.578,4.578,0,0,0,1.668,4.149,3.793,3.793,0,0,0,2.422.938,3.275,3.275,0,0,0,1.118-.2l17.723-6.415a5.551,5.551,0,0,0,2.041,2.947,3.478,3.478,0,0,0,2.749.539l21.822-4.76a5.3,5.3,0,0,0,4.417-4.5L83.444,29.73C83.906,26.569,80.495,25.334,79.21,24.869Zm-32.5-2.531h.342a1.439,1.439,0,0,0,0-2.877h-.342a1.439,1.439,0,0,0,0,2.877ZM44,11.649a1.437,1.437,0,0,0,1.656-1.182l.73-4.375a3.243,3.243,0,0,1,1.052-2.021.617.617,0,0,1,.523-.11l3.564.777a1.439,1.439,0,0,0,.613-2.811L48.578,1.15a3.478,3.478,0,0,0-2.75.539,5.921,5.921,0,0,0-2.276,3.93l-.73,4.375A1.439,1.439,0,0,0,44,11.649Z" transform="translate(-25.97)" fill="#00c466"/>
</svg>
