<svg xmlns="http://www.w3.org/2000/svg" width="186.324" height="238.873" viewBox="0 0 186.324 238.873">
  <path id="path270" d="M645.37,248.358H655.9V186.742l20.539-20.553h21.495l7.173-7.16H681.688l17.676-17.675h34.395l8.605-8.606H707.971l12.9-12.9h19.585v-7.637H728.509L743.8,96.92V85.927l-17.2,17.2V82.6l-8.128,8.114v19.107L706.06,122.247V104.572l-8.6,8.592v18.644L679.78,149.482V130.838l-8.607,8.606v19.107l-16.243,16.243c.477-.463,0-37.737,0-37.737l17.2-17.212h17.213v-7.16H677.393l35.351-35.35h25.8v-7.16h-19.6l11.485-11.47-2.879-6.22-5.25,5.265V42.94l-8.129-8.129V65.866l-39.169,39.183V85.45l-7.174,7.174v20.062l-13.381,13.379V89.283l10.517-10.515H690.3l7.637-7.637H670.22l13.857-13.857h21.03V49.623H691.25l19.584-19.584-6.682-6.22L690.773,37.2V19.046l-6.7-6.7V47.222L671.651,59.646V35.766l-8.114,8.129V66.82l-8.607,8.592V37.675L679.3,13.3H669.265L654.931,27.637V9.485H646.34V27.637L632.005,13.3H621.968L646.34,37.675V75.412l-8.607-8.592V43.895l-8.113-8.129v23.88L617.194,47.222V12.349l-6.7,6.7V37.2L597.133,23.819l-6.7,6.22,19.585,19.584H596.178v7.651h21.016L631.05,71.131H603.337l7.638,7.637H636.3l10.516,10.515v36.782l-13.38-13.379V92.624l-7.174-7.174v19.6L587.094,65.866V34.812l-8.129,8.129V57.751l-5.25-5.265-2.864,6.22,11.47,11.47h-19.6v7.16h25.8l35.351,35.35H611.929v7.16h17.212l17.2,17.212s-.492,37.274,0,37.737L630.1,158.551V139.444l-8.607-8.606v18.644l-17.676-17.675V113.163l-8.606-8.592v17.675L582.8,109.822V90.715L574.67,82.6v20.524l-17.2-17.2V96.92l15.288,15.288H560.813v7.637H580.4l12.9,12.9H558.89l8.607,8.606h34.41l17.675,17.675h-23.4l7.159,7.16h21.494l20.539,20.553v61.617Z" transform="translate(-557.473 -9.485)" fill="#fff" opacity="0.81"/>
</svg>
