<svg xmlns="http://www.w3.org/2000/svg" width="22.417" height="20.91" viewBox="0 0 22.417 20.91"><defs><style>.a{fill:#00c466;}</style></defs><g transform="translate(0 0)"><path class="a" d="M105.327,71.239h0Z" transform="translate(-91.299 -62.504)"/><path class="a" d="M19.629,19.065h2.029l-2.408-3.391h1.785l-5.466-7.7-3.048,4.293-4.7-6.612-6.2,8.735h2.1L.89,18.376H3.276L0,22.99H5.694v3.576H9.957V22.99H13.5v2.851h4.133V22.99h4.781ZM8.642,25.25H7.009V22.99H8.642ZM2.547,21.675l3.276-4.613H3.437l2.831-3.986H4.17L7.825,7.927l3.656,5.148h-2.1l2.831,3.986H9.828L13.1,21.675ZM16.32,24.525h-1.5V22.99h1.5v1.535Zm-1.6-2.851-2.342-3.3H14.76L11.93,14.39h2.1l-.7-.987,2.242-3.157,2.92,4.112H16.7l2.408,3.391H17.083l2.787,3.925Z" transform="translate(0 -5.655)"/></g></svg>