<svg xmlns="http://www.w3.org/2000/svg" width="17.956" height="17.331" viewBox="0 0 17.956 17.331"><defs><style>.a{fill:#fff;opacity:0;}.b{fill:none;stroke:#6dc066;stroke-linecap:round;stroke-linejoin:round;stroke-width:1.5px;}.c,.d{stroke:none;}.d{fill:#dfdfdf;}</style></defs><g transform="translate(0.332 0.331)"><g class="a"><path class="c" d="M 8.5 16.25 C 4.226640224456787 16.25 0.75 12.77336025238037 0.75 8.5 C 0.75 6.115330219268799 1.804280042648315 3.984380006790161 3.798870086669922 2.337510108947754 C 4.990379810333252 1.342460036277771 6.746600151062012 0.75 8.5 0.75 C 12.77336025238037 0.75 16.25 4.226640224456787 16.25 8.5 C 16.25 12.77336025238037 12.77336025238037 16.25 8.5 16.25 Z"/><path class="d" d="M 8.5 1.5 C 6.916910171508789 1.5 5.340410232543945 2.027279853820801 4.28285026550293 2.910479545593262 L 4.276379585266113 2.915849685668945 C 2.460060119628906 4.415530204772949 1.5 6.346500396728516 1.5 8.5 C 1.5 12.35980987548828 4.640190124511719 15.5 8.5 15.5 C 12.35980987548828 15.5 15.5 12.35980987548828 15.5 8.5 C 15.5 4.640190124511719 12.35980987548828 1.5 8.5 1.5 M 8.5 0 C 13.19441986083984 0 17 3.805580139160156 17 8.5 C 17 13.19441986083984 13.19441986083984 17 8.5 17 C 3.805580139160156 17 0 13.19441986083984 0 8.5 C 0 5.866430282592773 1.197699546813965 3.512599945068359 3.32135009765625 1.759169578552246 C 4.549599647521973 0.7334194183349609 6.439149856567383 0 8.5 0 Z"/></g><g transform="translate(0.631 0.581)"><path class="b" d="M18.933,9.965v.706a7.72,7.72,0,0,1-5.708,7.357,8.116,8.116,0,0,1-8.942-3.183A7.456,7.456,0,0,1,4.911,5.68a8.171,8.171,0,0,1,9.3-2.024" transform="translate(-3 -2.991)"/><path class="b" d="M23.856,6,15.89,13.974l-2.39-2.39" transform="translate(-7.923 -4.402)"/></g></g></svg>